<svg width="611" height="264" viewBox="0 0 611 264" fill="none" xmlns="http://www.w3.org/2000/svg">
<path d="M282.578 70.7781H312.569V114.159H312.637H327.701V70.7781H357.349V57.1656H282.578V70.7781Z" fill="#DCE4E2"/>
<path d="M468.081 57.2344H454.355V114.228H468.081V57.2344Z" fill="#DCE4E2"/>
<path d="M548.823 84.1156C545.322 80.6094 541.17 78.8563 536.401 78.8563H499.238C498.209 78.8563 497.214 78.4438 496.493 77.6875C495.704 76.8969 495.327 75.9 495.327 74.8688C495.327 73.8375 495.704 72.7719 496.493 71.9813C497.283 71.1906 498.14 70.8125 499.307 70.8125H550.367V57.1313H499.307C494.537 57.1313 490.317 58.9188 486.885 62.3563C483.454 65.7938 481.669 70.0219 481.669 74.8C481.669 79.5781 483.454 83.8063 486.885 87.2438C490.385 90.6813 494.537 92.4688 499.307 92.4688H536.469C537.567 92.4688 538.563 92.8469 539.283 93.6375C540.072 94.4281 540.45 95.3563 540.45 96.4563C540.45 97.5563 540.072 98.4844 539.283 99.275C538.563 100.066 537.636 100.444 536.469 100.444H481.772V114.263H536.332C541.102 114.263 545.322 112.475 548.754 109.038C552.185 105.6 553.97 101.441 553.97 96.5938C553.97 91.7469 552.254 87.6219 548.823 84.15V84.1156Z" fill="#DCE4E2"/>
<path d="M154.586 114.159H199.675V100.547H154.586C153.556 100.547 152.63 100.169 151.841 99.3781C151.051 98.5875 150.674 97.6594 150.674 96.6281V91.4031H199.675V79.6813H150.674V74.8344C150.674 73.8031 151.051 72.9437 151.909 72.0844C152.767 71.225 153.694 70.8469 154.654 70.8469H199.743V57.2344H154.654C149.885 57.2344 145.664 59.0219 142.233 62.4594V62.3906C138.733 65.8281 137.017 70.0562 137.017 74.8344V96.4906C137.017 101.269 138.801 105.497 142.233 108.934C145.595 112.372 149.816 114.159 154.62 114.159H154.586Z" fill="#DCE4E2"/>
<path d="M109.051 57.0969L109.119 57.1656H57.0647V70.7781H109.119C110.115 70.7781 111.007 71.1906 111.83 72.0156C112.688 72.875 113.066 73.8031 113.066 74.7656V96.4906C113.066 97.5906 112.688 98.5875 111.899 99.3094C111.11 100.1 110.252 100.478 109.085 100.478H70.756V78.8906H57.0303V114.056H109.085C113.855 114.056 118.075 112.269 121.507 108.831C124.938 105.325 126.723 101.166 126.723 96.3875V74.8C126.723 70.0219 124.938 65.7937 121.507 62.3562C118.007 58.9187 113.855 57.1312 109.085 57.1312L109.051 57.0969Z" fill="#DCE4E2"/>
<path d="M436.443 85.3187L436.375 85.1813L436.546 84.8031C438.399 81.6062 439.36 78.2375 439.36 74.7312C439.36 71.225 437.576 65.725 434.144 62.2875C430.713 58.85 426.492 57.0625 421.722 57.0625H365.516V70.675H422.237C423.335 70.675 424.262 71.0531 425.051 71.8438C425.84 72.6344 426.218 73.6312 426.218 74.7312C426.218 75.8312 425.84 76.7594 425.051 77.55C424.193 78.4094 423.198 78.8219 422.237 78.8219L365.653 78.6844V113.953H379.379V92.4344H423.541C424.399 92.4344 425.12 92.8469 425.737 93.7063C426.423 94.5656 426.767 95.4938 426.767 96.4219V114.091H440.424V96.4219C440.424 92.3656 439.154 88.6875 436.683 85.5594L436.443 85.25V85.3187Z" fill="#DCE4E2"/>
<path d="M217.278 62.4594V62.3906C213.847 65.8281 212.062 69.9875 212.062 74.8344V96.4906C212.062 101.269 213.847 105.497 217.278 108.934C220.641 112.372 224.827 114.159 229.665 114.159H274.754V100.547H229.665C228.636 100.547 227.641 100.134 226.92 99.3781C226.131 98.5875 225.754 97.7281 225.754 96.6281V74.8344C225.754 73.8375 226.131 72.9437 226.989 72.0844C227.847 71.225 228.705 70.8469 229.734 70.8469H274.823V57.2344H229.734C224.964 57.2344 220.744 59.0219 217.312 62.4594H217.278Z" fill="#DCE4E2"/>
<path d="M117.183 190.987C117.183 198.55 114.267 200.716 104.075 200.716H77.6532C70.4129 200.716 64.5451 198.55 64.5451 188.822V167.819C64.5451 158.091 70.4129 155.925 77.6532 155.925H103.835C110.766 155.925 116.634 156.372 116.634 165.894V168.437H123.257V163.659C123.257 156.166 119.482 149.772 105.757 149.772H76.864C61.7657 149.772 56.996 156.578 56.996 170.706V186.003C56.996 200.131 61.7657 206.937 76.864 206.937H105.379C121.026 206.937 124.252 201.472 124.252 191.331V187.55H117.149V191.022L117.183 190.987Z" fill="#9C9C9C"/>
<path d="M143.983 150.391H136.434V206.284H187.287V200.097H143.983V150.391Z" fill="#9C9C9C"/>
<path d="M245.896 149.772H213.778C198.68 149.772 193.91 156.578 193.91 170.706V186.003C193.91 200.131 198.68 206.937 213.778 206.937H245.896C260.994 206.937 265.764 200.131 265.764 186.003V170.706C265.764 156.578 260.994 149.772 245.896 149.772ZM258.215 188.822C258.215 198.55 252.347 200.716 245.107 200.716H214.533C207.293 200.716 201.425 198.55 201.425 188.822V167.819C201.425 158.091 207.293 155.925 214.533 155.925H245.107C252.347 155.925 258.215 158.091 258.215 167.819V188.822Z" fill="#9C9C9C"/>
<path d="M337.035 192.156C337.035 197.553 335.182 200.716 324.956 200.716H298.774C288.514 200.716 286.661 197.553 286.661 192.156V150.391H279.112V192.225C279.112 203.569 284.808 206.903 298.98 206.903H324.716C338.888 206.903 344.584 203.569 344.584 192.225V150.391H337.035V192.156Z" fill="#9C9C9C"/>
<path d="M403.948 150.391H358.859V206.284H403.707C422.649 206.284 427.727 198.859 427.727 178.337C427.727 157.816 422.649 150.391 403.913 150.391H403.948ZM420.213 181.328C420.213 198.069 413.899 200.097 404.737 200.097H366.442V156.578H405.972C415.203 156.578 420.213 159.5 420.213 175.656V181.362V181.328Z" fill="#9C9C9C"/>
</svg>
