<?xml version="1.0" encoding="UTF-8" standalone="no"?>
<!-- Generator: Adobe Illustrator 24.3.0, SVG Export Plug-In . SVG Version: 6.00 Build 0)  -->

<svg
   version="1.1"
   x="0px"
   y="0px"
   viewBox="0 0 3000 700.00002"
   xml:space="preserve"
   id="svg116"
   sodipodi:docname="SciCatCon2025_logo_full.svg"
   width="3000"
   height="700"
   inkscape:version="1.1.2 (0a00cf5339, 2022-02-04)"
   inkscape:export-filename="/home/nitrosx/repos/scicat-branding/logo/png/SciCat_logo_full.png"
   inkscape:export-xdpi="96"
   inkscape:export-ydpi="96"
   xmlns:inkscape="http://www.inkscape.org/namespaces/inkscape"
   xmlns:sodipodi="http://sodipodi.sourceforge.net/DTD/sodipodi-0.dtd"
   xmlns:xlink="http://www.w3.org/1999/xlink"
   xmlns="http://www.w3.org/2000/svg"
   xmlns:svg="http://www.w3.org/2000/svg"><defs
   id="defs120"><rect
   x="1152.122"
   y="792.53015"
   width="1315.0748"
   height="229.23136"
   id="rect13879" /><rect
   x="1190.7569"
   y="-506.88073"
   width="927.9306"
   height="526.74091"
   id="rect2745" />
	
	
	

		<defs
   id="defs98">
			<circle
   id="SVGID_1_"
   cx="153.5"
   cy="124.2"
   r="77.5" />
		</defs>
		
		<clipPath
   id="SVGID_2_">
			<use
   xlink:href="#SVGID_1_"
   style="overflow:visible"
   id="use102"
   x="0"
   y="0"
   width="100%"
   height="100%" />
		</clipPath>
		
	
			
			
			
		
		
		
	</defs><sodipodi:namedview
   id="namedview118"
   pagecolor="#ffffff"
   bordercolor="#666666"
   borderopacity="1.0"
   inkscape:pageshadow="2"
   inkscape:pageopacity="0.0"
   inkscape:pagecheckerboard="0"
   showgrid="false"
   inkscape:zoom="0.28"
   inkscape:cx="1475"
   inkscape:cy="653.57143"
   inkscape:window-width="1920"
   inkscape:window-height="1048"
   inkscape:window-x="0"
   inkscape:window-y="0"
   inkscape:window-maximized="1"
   inkscape:current-layer="svg116" />
<style
   type="text/css"
   id="style2">
	.st0{fill:#27AAE1;}
	.st1{fill:#808285;}
	.st2{fill:#6D6E71;}
	.st3{clip-path:url(#SVGID_2_);}
	.st4{fill:#27AAE1;stroke:#FFFFFF;stroke-width:4.252;stroke-linecap:round;stroke-linejoin:round;stroke-miterlimit:10;}
	.st5{fill:#27AAE1;stroke:#FFFFFF;stroke-width:4.252;stroke-linecap:round;stroke-miterlimit:10;}
</style>

<polygon
   class="st0"
   points="80.1,189.3 75,188.9 28.9,236.4 46.6,253.6 92.8,206.1 92.1,201.1 101.7,191.2 89.6,179.5 "
   id="polygon7"
   transform="matrix(2.6662076,0,0,2.6662076,-48.153401,-37.811892)"
   style="stroke-width:0.375065" /><g
   id="g21"
   transform="matrix(2.6662076,0,0,2.6662076,-48.153401,-37.811892)"
   style="stroke-width:0.375065">
			<path
   class="st1"
   d="m 342,140.1 c 0,6.6 -1.6,12.7 -4.9,18.5 -3.3,5.7 -8.4,10.4 -15.2,14 -6.9,3.6 -15.7,5.4 -26.7,5.4 -5.5,0 -10.2,-0.2 -14.3,-0.8 -4.1,-0.5 -7.9,-1.3 -11.5,-2.4 -3.6,-1.1 -7.2,-2.6 -11,-4.3 v -28.8 c 6.5,3.2 13,5.7 19.6,7.4 6.6,1.7 12.5,2.6 17.9,2.6 4.8,0 8.3,-0.8 10.5,-2.5 2.2,-1.7 3.3,-3.8 3.3,-6.4 0,-3.1 -1.6,-5.6 -4.9,-7.5 -3.3,-1.9 -8.8,-4.6 -16.6,-8.2 -5.9,-2.7 -11,-5.6 -15.4,-8.7 -4.3,-3.1 -7.7,-6.9 -10,-11.4 -2.3,-4.5 -3.5,-10.1 -3.5,-16.9 0,-7.7 1.9,-14.1 5.7,-19.3 3.8,-5.2 9.1,-9.1 15.8,-11.7 6.7,-2.6 14.6,-3.9 23.5,-3.9 7.8,0 14.8,0.9 21.1,2.7 6.2,1.8 11.8,3.7 16.7,5.9 l -9.9,24.9 c -5.1,-2.3 -10.2,-4.2 -15.1,-5.6 -5,-1.4 -9.6,-2.1 -13.8,-2.1 -4.2,0 -7.3,0.7 -9.2,2.2 -1.9,1.4 -2.8,3.3 -2.8,5.5 0,1.9 0.7,3.6 2.2,5 1.4,1.5 3.9,3 7.3,4.8 3.4,1.7 8.1,3.9 14,6.6 5.8,2.7 10.7,5.5 14.8,8.5 4.1,3 7.2,6.6 9.4,10.9 1.9,4.3 3,9.5 3,15.6 z"
   id="path9"
   style="stroke-width:0.375065" />
			<path
   class="st1"
   d="m 397.4,178.1 c -14,0 -25.2,-3.8 -33.6,-11.4 -8.4,-7.6 -12.5,-19.6 -12.5,-36.1 0,-11.1 2.1,-20.3 6.4,-27.4 4.2,-7.1 10,-12.4 17.3,-15.8 7.3,-3.4 15.6,-5.1 25,-5.1 5.7,0 11.1,0.6 16.1,1.9 5.1,1.3 9.8,3 14.1,5.1 l -9.4,23.6 c -3.8,-1.7 -7.4,-3 -10.7,-4 -3.3,-1 -6.7,-1.5 -10.2,-1.5 -4.8,0 -8.7,1.9 -11.7,5.7 -3,3.8 -4.5,9.6 -4.5,17.4 0,8 1.5,13.7 4.5,17.1 3,3.4 7,5.1 11.9,5.1 4.6,0 9.2,-0.7 13.8,-2.2 4.6,-1.4 9,-3.5 13.1,-6 v 25.4 c -3.9,2.6 -8.2,4.6 -13,6 -4.7,1.5 -10.3,2.2 -16.6,2.2 z"
   id="path11"
   style="stroke-width:0.375065" />
			<path
   class="st1"
   d="m 454.9,46.7 c 4.6,0 8.6,0.9 12,2.8 3.4,1.9 5.1,5.7 5.1,11.4 0,5.5 -1.7,9.2 -5.1,11.1 -3.4,2 -7.4,2.9 -12,2.9 -4.7,0 -8.7,-1 -12,-2.9 -3.3,-1.9 -4.9,-5.7 -4.9,-11.1 0,-5.7 1.6,-9.5 4.9,-11.4 3.3,-1.9 7.3,-2.8 12,-2.8 z M 470.8,84 v 92.5 H 438.9 V 84 Z"
   id="path13"
   style="stroke-width:0.375065" />
			<path
   class="st0"
   d="m 541.3,81.8 c -7.6,0 -13.5,3.1 -17.9,9.4 -4.3,6.2 -6.5,14.9 -6.5,26.1 0,11.3 2.1,19.8 6.4,25.7 4.3,5.9 10.9,8.8 19.8,8.8 5.2,0 10.3,-0.7 15.3,-2.2 5,-1.4 9.9,-3.2 15,-5.4 v 27.3 c -5.2,2.3 -10.6,4 -16.2,5.1 -5.6,1.1 -11.4,1.6 -17.6,1.6 -13,0 -23.7,-2.6 -31.9,-7.7 -8.2,-5.1 -14.2,-12.3 -18.1,-21.5 -3.9,-9.2 -5.9,-19.8 -5.9,-31.9 0,-12.1 2.2,-22.7 6.7,-31.9 4.5,-9.3 11,-16.5 19.6,-21.8 8.6,-5.3 19.1,-7.9 31.5,-7.9 5.8,0 11.9,0.7 18.2,2 6.4,1.3 12.6,3.5 18.7,6.4 l -9.9,25.4 c -4.3,-2.1 -8.8,-3.9 -13.2,-5.3 -4.2,-1.5 -9,-2.2 -14,-2.2 z"
   id="path15"
   style="stroke-width:0.375065" />
			<path
   class="st0"
   d="m 633.3,82.3 c 11.7,0 20.8,2.9 27.4,8.7 6.6,5.8 9.9,14 9.9,24.7 v 60.7 h -22.1 l -6.2,-12.2 h -0.7 c -2.7,3.2 -5.4,5.9 -8,7.9 -2.7,2.1 -5.8,3.6 -9.4,4.5 -3.6,0.9 -7.9,1.4 -13,1.4 -8,0 -14.7,-2.5 -20.1,-7.4 -5.4,-4.9 -8,-12.4 -8,-22.6 0,-9.9 3.4,-17.3 10.3,-22.1 6.9,-4.8 16.8,-7.5 29.8,-8 l 15.4,-0.5 v -1.3 c 0,-4.1 -1,-7 -3,-8.8 -2,-1.7 -4.7,-2.6 -8.2,-2.6 -3.7,0 -7.7,0.6 -12.2,1.9 -4.5,1.3 -9,2.9 -13.5,4.9 l -9.2,-21.1 c 5.4,-2.8 11.4,-4.9 18.1,-6.3 6.8,-1.1 14.3,-1.8 22.7,-1.8 z m 5.5,52.8 -7.4,0.3 c -5.9,0.2 -10,1.3 -12.4,3.1 -2.4,1.8 -3.5,4.4 -3.5,7.8 0,3.1 0.8,5.4 2.5,6.9 1.7,1.5 3.9,2.3 6.7,2.3 3.9,0 7.2,-1.2 9.9,-3.7 2.7,-2.5 4.1,-5.6 4.1,-9.5 v -7.2 z"
   id="path17"
   style="stroke-width:0.375065" />
			<path
   class="st0"
   d="m 730.9,152.9 c 2.8,0 5.4,-0.3 7.9,-0.9 2.5,-0.6 5,-1.4 7.5,-2.3 v 23.2 c -3.5,1.4 -7.1,2.7 -11,3.7 -3.9,1 -8.9,1.5 -14.9,1.5 -6,0 -11.3,-0.9 -15.9,-2.8 -4.6,-1.9 -8.1,-5.2 -10.6,-9.8 -2.5,-4.6 -3.8,-11.1 -3.8,-19.5 v -38.1 h -11.2 v -13 l 14.2,-10 8.2,-19.4 h 20.9 V 84 H 745 v 23.9 h -22.7 v 35.9 c -0.1,6 2.8,9.1 8.6,9.1 z"
   id="path19"
   style="stroke-width:0.375065" />
		</g><g
   id="g93"
   transform="matrix(2.6662076,0,0,2.6662076,-30.394964,422.4757)"
   style="stroke-width:0.375065">
			<path
   class="st2"
   d="m 265.3,204 c 1.7,0 2.9,0.4 3.8,1.2 0.9,0.8 1.2,2.1 1.2,3.9 v 10.1 h -1.2 l -0.3,-2.5 h -0.1 c -0.5,0.8 -1.2,1.5 -2,2 -0.8,0.5 -1.9,0.8 -3.3,0.8 -1.4,0 -2.6,-0.4 -3.4,-1.1 -0.8,-0.7 -1.2,-1.8 -1.2,-3.1 0,-1.5 0.6,-2.6 1.8,-3.4 1.2,-0.8 3,-1.2 5.3,-1.3 l 2.7,-0.1 v -1 c 0,-1.5 -0.3,-2.5 -0.9,-3.1 -0.6,-0.6 -1.5,-0.9 -2.6,-0.9 -0.8,0 -1.5,0.1 -2.2,0.3 -0.7,0.2 -1.4,0.5 -2.1,0.9 l -0.5,-1.3 c 0.7,-0.4 1.5,-0.6 2.3,-0.9 0.9,-0.4 1.8,-0.5 2.7,-0.5 z m 3.4,7.7 -2.5,0.1 c -1.9,0.1 -3.3,0.4 -4.3,1 -1,0.6 -1.4,1.4 -1.4,2.6 0,0.9 0.3,1.6 0.9,2.1 0.6,0.5 1.4,0.7 2.4,0.7 1.6,0 2.8,-0.4 3.6,-1.3 0.9,-0.9 1.3,-2.1 1.3,-3.7 z"
   id="path23"
   style="stroke-width:0.375065" />
			<path
   class="st2"
   d="m 279.1,219.5 c -2,0 -3.5,-0.6 -4.6,-1.9 -1.1,-1.3 -1.6,-3.2 -1.6,-5.7 0,-2.6 0.6,-4.6 1.7,-5.9 1.1,-1.3 2.7,-2 4.7,-2 1.3,0 2.3,0.3 3.1,0.8 0.8,0.5 1.4,1.2 1.7,2.1 h 0.1 c 0,-0.5 0,-0.9 -0.1,-1.5 0,-0.5 0,-1 0,-1.4 v -6.1 h 1.6 v 21.4 h -1.3 l -0.2,-2.6 H 284 c -0.4,0.8 -1,1.5 -1.8,2 -0.8,0.5 -1.8,0.8 -3.1,0.8 z m 0.1,-1.4 c 1.7,0 2.9,-0.5 3.7,-1.6 0.8,-1.1 1.1,-2.6 1.1,-4.5 v -0.3 c 0,-2.1 -0.4,-3.6 -1.1,-4.7 -0.7,-1.1 -1.9,-1.6 -3.6,-1.6 -1.6,0 -2.8,0.6 -3.7,1.7 -0.8,1.1 -1.2,2.7 -1.2,4.8 0,2 0.4,3.6 1.2,4.6 0.8,1 2,1.6 3.6,1.6 z"
   id="path25"
   style="stroke-width:0.375065" />
			<path
   class="st2"
   d="m 292.4,219.2 -5.7,-14.9 h 1.7 l 3.7,9.9 c 0.2,0.6 0.5,1.2 0.7,1.8 0.2,0.6 0.4,1.1 0.5,1.6 h 0.1 c 0.1,-0.5 0.3,-1 0.5,-1.6 0.2,-0.6 0.4,-1.2 0.6,-1.8 l 3.7,-9.9 h 1.7 l -5.7,14.9 z"
   id="path27"
   style="stroke-width:0.375065" />
			<path
   class="st2"
   d="m 306.2,204 c 1.7,0 2.9,0.4 3.8,1.2 0.9,0.8 1.2,2.1 1.2,3.9 v 10.1 H 310 l -0.3,-2.5 h -0.1 c -0.5,0.8 -1.2,1.5 -2,2 -0.8,0.5 -1.9,0.8 -3.3,0.8 -1.4,0 -2.6,-0.4 -3.4,-1.1 -0.8,-0.7 -1.2,-1.8 -1.2,-3.1 0,-1.5 0.6,-2.6 1.8,-3.4 1.2,-0.8 3,-1.2 5.3,-1.3 l 2.7,-0.1 v -1 c 0,-1.5 -0.3,-2.5 -0.9,-3.1 -0.6,-0.6 -1.5,-0.9 -2.6,-0.9 -0.8,0 -1.5,0.1 -2.2,0.3 -0.7,0.2 -1.4,0.5 -2.1,0.9 l -0.5,-1.3 c 0.7,-0.4 1.5,-0.6 2.3,-0.9 0.9,-0.4 1.8,-0.5 2.7,-0.5 z m 3.4,7.7 -2.5,0.1 c -1.9,0.1 -3.3,0.4 -4.3,1 -1,0.6 -1.4,1.4 -1.4,2.6 0,0.9 0.3,1.6 0.9,2.1 0.6,0.5 1.4,0.7 2.4,0.7 1.6,0 2.8,-0.4 3.6,-1.3 0.9,-0.9 1.3,-2.1 1.3,-3.7 z"
   id="path29"
   style="stroke-width:0.375065" />
			<path
   class="st2"
   d="m 321.2,204 c 1.7,0 3,0.4 3.9,1.3 0.9,0.9 1.3,2.3 1.3,4.1 v 9.8 h -1.6 v -9.7 c 0,-1.4 -0.3,-2.5 -1,-3.1 -0.6,-0.7 -1.6,-1 -2.9,-1 -3.3,0 -4.9,1.9 -4.9,5.7 v 8.1 h -1.6 v -14.9 h 1.3 l 0.2,2.6 h 0.1 c 0.4,-0.8 1,-1.5 1.9,-2.1 1,-0.6 2,-0.8 3.3,-0.8 z"
   id="path31"
   style="stroke-width:0.375065" />
			<path
   class="st2"
   d="m 335.9,219.5 c -2.2,0 -3.9,-0.7 -5.1,-2 -1.2,-1.3 -1.8,-3.2 -1.8,-5.7 0,-1.7 0.3,-3.1 0.9,-4.3 0.6,-1.2 1.4,-2.1 2.5,-2.7 1.1,-0.6 2.3,-0.9 3.8,-0.9 0.7,0 1.4,0.1 2,0.2 0.6,0.1 1.2,0.3 1.7,0.5 l -0.4,1.4 c -1,-0.5 -2.1,-0.7 -3.3,-0.7 -1.8,0 -3.1,0.6 -4.1,1.7 -1,1.1 -1.4,2.7 -1.4,4.7 0,1.9 0.4,3.4 1.3,4.6 0.9,1.2 2.1,1.7 3.9,1.7 0.7,0 1.5,-0.1 2.1,-0.2 0.7,-0.1 1.2,-0.3 1.8,-0.6 v 1.4 c -0.5,0.2 -1,0.4 -1.7,0.6 -0.7,0.2 -1.4,0.3 -2.2,0.3 z"
   id="path33"
   style="stroke-width:0.375065" />
			<path
   class="st2"
   d="m 347.5,204 c 1.3,0 2.3,0.3 3.2,0.9 0.9,0.6 1.5,1.4 1.9,2.4 0.4,1 0.6,2.2 0.6,3.5 v 1.1 h -10.7 c 0,2 0.5,3.5 1.4,4.5 0.9,1.1 2.2,1.6 4,1.6 0.9,0 1.8,-0.1 2.4,-0.2 0.7,-0.1 1.5,-0.4 2.3,-0.8 v 1.5 c -0.7,0.3 -1.5,0.6 -2.2,0.7 -0.7,0.2 -1.6,0.2 -2.6,0.2 -2.2,0 -3.9,-0.7 -5.1,-2.1 -1.2,-1.4 -1.8,-3.2 -1.8,-5.6 0,-1.5 0.3,-2.9 0.8,-4.1 0.5,-1.2 1.3,-2.1 2.2,-2.8 0.9,-0.7 2.2,-0.8 3.6,-0.8 z m 0,1.3 c -1.4,0 -2.5,0.5 -3.3,1.4 -0.8,0.9 -1.4,2.2 -1.5,3.9 h 9 c 0,-1.6 -0.3,-2.8 -1,-3.8 -0.8,-1 -1.8,-1.5 -3.2,-1.5 z"
   id="path35"
   style="stroke-width:0.375065" />
			<path
   class="st2"
   d="m 359.4,204.2 h 1.7 l 3.6,9.3 c 0.3,0.8 0.6,1.6 0.8,2.2 0.2,0.6 0.4,1.2 0.5,1.7 h 0.1 c 0.1,-0.4 0.3,-1 0.5,-1.7 0.2,-0.7 0.5,-1.4 0.8,-2.2 l 3.5,-9.3 h 1.7 l -6.7,17.6 c -0.5,1.3 -1.1,2.3 -1.8,3 -0.7,0.7 -1.6,1.1 -2.8,1.1 -0.4,0 -0.7,0 -1,-0.1 -0.3,-0.1 -0.6,-0.1 -0.8,-0.2 v -1.3 c 0.5,0.2 1,0.3 1.6,0.3 0.8,0 1.4,-0.2 1.9,-0.7 0.5,-0.5 0.9,-1.2 1.3,-2.2 l 1,-2.5 z"
   id="path37"
   style="stroke-width:0.375065" />
			<path
   class="st2"
   d="m 386.1,211.7 c 0,1.6 -0.3,2.9 -0.8,4.1 -0.5,1.2 -1.3,2.1 -2.3,2.7 -1,0.6 -2.2,1 -3.7,1 -1.4,0 -2.6,-0.3 -3.6,-1 -1,-0.6 -1.8,-1.5 -2.3,-2.7 -0.5,-1.2 -0.8,-2.5 -0.8,-4.1 0,-2.4 0.6,-4.3 1.8,-5.7 1.2,-1.4 2.9,-2.1 5,-2.1 1.4,0 2.6,0.3 3.6,1 1,0.6 1.7,1.5 2.2,2.7 0.7,1.2 0.9,2.6 0.9,4.1 z m -11.7,0 c 0,1.9 0.4,3.5 1.2,4.6 0.8,1.2 2.1,1.8 3.8,1.8 1.7,0 3,-0.6 3.8,-1.8 0.8,-1.2 1.2,-2.7 1.2,-4.6 0,-1.2 -0.2,-2.3 -0.5,-3.3 -0.3,-1 -0.9,-1.7 -1.6,-2.2 -0.7,-0.5 -1.7,-0.8 -2.9,-0.8 -1.7,0 -3,0.6 -3.8,1.7 -0.8,1.1 -1.2,2.6 -1.2,4.6 z"
   id="path39"
   style="stroke-width:0.375065" />
			<path
   class="st2"
   d="m 400.5,204.2 v 14.9 h -1.3 l -0.2,-2.6 h -0.1 c -0.4,0.8 -1,1.5 -1.9,2 -0.9,0.5 -1.9,0.8 -3.2,0.8 -3.5,0 -5.3,-1.8 -5.3,-5.4 v -9.8 h 1.6 v 9.7 c 0,1.4 0.3,2.5 1,3.2 0.6,0.7 1.6,1 2.9,1 3.3,0 4.9,-1.9 4.9,-5.7 v -8.1 z"
   id="path41"
   style="stroke-width:0.375065" />
			<path
   class="st2"
   d="m 410.2,204 c 0.8,0 1.5,0.1 2,0.3 l -0.2,1.5 c -0.3,-0.1 -0.6,-0.1 -0.9,-0.2 -0.3,0 -0.6,-0.1 -1,-0.1 -1.4,0 -2.5,0.5 -3.3,1.5 -0.8,1 -1.2,2.3 -1.2,4 v 8.2 H 404 v -14.9 h 1.3 l 0.2,2.8 h 0.1 c 0.4,-0.8 0.9,-1.6 1.7,-2.2 0.9,-0.6 1.8,-0.9 2.9,-0.9 z"
   id="path43"
   style="stroke-width:0.375065" />
			<path
   class="st2"
   d="m 425,219.5 c -2,0 -3.5,-0.6 -4.6,-1.9 -1.1,-1.3 -1.6,-3.2 -1.6,-5.7 0,-2.6 0.6,-4.6 1.7,-5.9 1.1,-1.3 2.7,-2 4.7,-2 1.3,0 2.3,0.3 3.1,0.8 0.8,0.5 1.4,1.2 1.7,2.1 h 0.1 c 0,-0.5 0,-0.9 -0.1,-1.5 0,-0.5 0,-1 0,-1.4 v -6.1 h 1.6 v 21.4 h -1.3 l -0.2,-2.6 H 430 c -0.4,0.8 -1,1.5 -1.8,2 -0.8,0.5 -1.8,0.8 -3.2,0.8 z m 0.2,-1.4 c 1.7,0 2.9,-0.5 3.7,-1.6 0.8,-1.1 1.1,-2.6 1.1,-4.5 v -0.3 c 0,-2.1 -0.4,-3.6 -1.1,-4.7 -0.7,-1.1 -1.9,-1.6 -3.6,-1.6 -1.6,0 -2.8,0.6 -3.7,1.7 -0.8,1.1 -1.2,2.7 -1.2,4.8 0,2 0.4,3.6 1.2,4.6 0.8,1.1 2,1.6 3.6,1.6 z"
   id="path45"
   style="stroke-width:0.375065" />
			<path
   class="st2"
   d="m 440.4,204 c 1.7,0 2.9,0.4 3.8,1.2 0.9,0.8 1.2,2.1 1.2,3.9 v 10.1 h -1.2 l -0.3,-2.5 h -0.1 c -0.5,0.8 -1.2,1.5 -2,2 -0.8,0.5 -1.9,0.8 -3.3,0.8 -1.4,0 -2.6,-0.4 -3.4,-1.1 -0.8,-0.7 -1.2,-1.8 -1.2,-3.1 0,-1.5 0.6,-2.6 1.8,-3.4 1.2,-0.8 3,-1.2 5.3,-1.3 l 2.7,-0.1 v -1 c 0,-1.5 -0.3,-2.5 -0.9,-3.1 -0.6,-0.6 -1.5,-0.9 -2.6,-0.9 -0.8,0 -1.5,0.1 -2.2,0.3 -0.7,0.2 -1.4,0.5 -2.1,0.9 l -0.5,-1.3 c 0.7,-0.4 1.5,-0.6 2.3,-0.9 0.9,-0.4 1.8,-0.5 2.7,-0.5 z m 3.4,7.7 -2.5,0.1 c -1.9,0.1 -3.3,0.4 -4.3,1 -1,0.6 -1.4,1.4 -1.4,2.6 0,0.9 0.3,1.6 0.9,2.1 0.6,0.5 1.4,0.7 2.4,0.7 1.6,0 2.8,-0.4 3.6,-1.3 0.9,-0.9 1.3,-2.1 1.3,-3.7 z"
   id="path47"
   style="stroke-width:0.375065" />
			<path
   class="st2"
   d="m 453,218.1 c 0.4,0 0.8,0 1.2,-0.1 0.4,-0.1 0.7,-0.1 1,-0.2 v 1.3 c -0.3,0.1 -0.7,0.2 -1.1,0.3 -0.4,0.1 -0.8,0.1 -1.3,0.1 -1.2,0 -2.2,-0.4 -2.9,-1.1 -0.7,-0.7 -1,-1.8 -1,-3.4 v -9.5 h -2.2 v -0.9 l 2.2,-0.5 0.6,-3.5 h 1 v 3.6 h 4.6 v 1.3 h -4.6 v 9.4 c -0.1,2.2 0.8,3.2 2.5,3.2 z"
   id="path49"
   style="stroke-width:0.375065" />
			<path
   class="st2"
   d="m 462.2,204 c 1.7,0 2.9,0.4 3.8,1.2 0.9,0.8 1.2,2.1 1.2,3.9 v 10.1 H 466 l -0.3,-2.5 h -0.1 c -0.5,0.8 -1.2,1.5 -2,2 -0.8,0.5 -1.9,0.8 -3.3,0.8 -1.4,0 -2.6,-0.4 -3.4,-1.1 -0.8,-0.7 -1.2,-1.8 -1.2,-3.1 0,-1.5 0.6,-2.6 1.8,-3.4 1.2,-0.8 3,-1.2 5.3,-1.3 l 2.7,-0.1 v -1 c 0,-1.5 -0.3,-2.5 -0.9,-3.1 -0.6,-0.6 -1.5,-0.9 -2.6,-0.9 -0.8,0 -1.5,0.1 -2.2,0.3 -0.7,0.2 -1.4,0.5 -2.1,0.9 l -0.5,-1.3 c 0.7,-0.4 1.5,-0.6 2.3,-0.9 0.9,-0.4 1.8,-0.5 2.7,-0.5 z m 3.4,7.7 -2.5,0.1 c -1.9,0.1 -3.3,0.4 -4.3,1 -1,0.6 -1.4,1.4 -1.4,2.6 0,0.9 0.3,1.6 0.9,2.1 0.6,0.5 1.4,0.7 2.4,0.7 1.6,0 2.8,-0.4 3.6,-1.3 0.9,-0.9 1.3,-2.1 1.3,-3.7 z"
   id="path51"
   style="stroke-width:0.375065" />
			<path
   class="st2"
   d="m 480.7,218.1 c 0.4,0 0.8,0 1.2,-0.1 0.4,-0.1 0.7,-0.1 1,-0.2 v 1.3 c -0.3,0.1 -0.7,0.2 -1.1,0.3 -0.4,0.1 -0.8,0.1 -1.3,0.1 -1.2,0 -2.2,-0.4 -2.9,-1.1 -0.7,-0.7 -1,-1.8 -1,-3.4 v -9.5 h -2.2 v -0.9 l 2.2,-0.5 0.6,-3.5 h 1 v 3.6 h 4.6 v 1.3 h -4.6 v 9.4 c -0.1,2.2 0.8,3.2 2.5,3.2 z"
   id="path53"
   style="stroke-width:0.375065" />
			<path
   class="st2"
   d="m 497.1,211.7 c 0,1.6 -0.3,2.9 -0.8,4.1 -0.5,1.2 -1.3,2.1 -2.3,2.7 -1,0.6 -2.2,1 -3.7,1 -1.4,0 -2.6,-0.3 -3.6,-1 -1,-0.6 -1.8,-1.5 -2.3,-2.7 -0.5,-1.2 -0.8,-2.5 -0.8,-4.1 0,-2.4 0.6,-4.3 1.8,-5.7 1.2,-1.4 2.9,-2.1 5,-2.1 1.4,0 2.6,0.3 3.6,1 1,0.7 1.7,1.5 2.2,2.7 0.6,1.2 0.9,2.6 0.9,4.1 z m -11.7,0 c 0,1.9 0.4,3.5 1.2,4.6 0.8,1.2 2.1,1.8 3.8,1.8 1.7,0 3,-0.6 3.8,-1.8 0.8,-1.2 1.2,-2.7 1.2,-4.6 0,-1.2 -0.2,-2.3 -0.5,-3.3 -0.3,-1 -0.9,-1.7 -1.6,-2.2 -0.7,-0.5 -1.7,-0.8 -2.9,-0.8 -1.7,0 -3,0.6 -3.8,1.7 -0.8,1.1 -1.2,2.6 -1.2,4.6 z"
   id="path55"
   style="stroke-width:0.375065" />
			<path
   class="st2"
   d="m 510.9,204 c 1.7,0 2.9,0.4 3.8,1.2 0.9,0.8 1.2,2.1 1.2,3.9 v 10.1 h -1.2 l -0.3,-2.5 h -0.1 c -0.5,0.8 -1.2,1.5 -2,2 -0.8,0.5 -1.9,0.8 -3.3,0.8 -1.4,0 -2.6,-0.4 -3.4,-1.1 -0.8,-0.7 -1.2,-1.8 -1.2,-3.1 0,-1.5 0.6,-2.6 1.8,-3.4 1.2,-0.8 3,-1.2 5.3,-1.3 l 2.7,-0.1 v -1 c 0,-1.5 -0.3,-2.5 -0.9,-3.1 -0.6,-0.6 -1.5,-0.9 -2.6,-0.9 -0.8,0 -1.5,0.1 -2.2,0.3 -0.7,0.2 -1.4,0.5 -2.1,0.9 l -0.5,-1.3 c 0.7,-0.4 1.5,-0.6 2.3,-0.9 1,-0.4 1.8,-0.5 2.7,-0.5 z m 3.5,7.7 -2.5,0.1 c -1.9,0.1 -3.3,0.4 -4.3,1 -0.9,0.6 -1.4,1.4 -1.4,2.6 0,0.9 0.3,1.6 0.9,2.1 0.6,0.5 1.4,0.7 2.4,0.7 1.6,0 2.8,-0.4 3.6,-1.3 0.9,-0.9 1.3,-2.1 1.3,-3.7 z"
   id="path57"
   style="stroke-width:0.375065" />
			<path
   class="st2"
   d="m 524.7,219.5 c -2,0 -3.5,-0.6 -4.6,-1.9 -1.1,-1.3 -1.6,-3.2 -1.6,-5.7 0,-2.6 0.6,-4.6 1.7,-5.9 1.1,-1.3 2.7,-2 4.7,-2 1.3,0 2.3,0.3 3.1,0.8 0.8,0.5 1.4,1.2 1.7,2.1 h 0.1 c 0,-0.5 0,-0.9 -0.1,-1.5 -0.1,-0.6 0,-1 0,-1.4 v -6.1 h 1.6 v 21.4 H 530 l -0.2,-2.6 h -0.1 c -0.4,0.8 -1,1.5 -1.8,2 -0.8,0.5 -1.9,0.8 -3.2,0.8 z m 0.2,-1.4 c 1.7,0 3,-0.5 3.7,-1.6 0.7,-1 1.1,-2.6 1.1,-4.5 v -0.3 c 0,-2.1 -0.4,-3.6 -1.1,-4.7 -0.7,-1.1 -1.9,-1.6 -3.6,-1.6 -1.6,0 -2.8,0.6 -3.7,1.7 -0.8,1.1 -1.2,2.7 -1.2,4.8 0,2 0.4,3.6 1.2,4.6 0.8,1.1 2,1.6 3.6,1.6 z"
   id="path59"
   style="stroke-width:0.375065" />
			<path
   class="st2"
   d="m 538,219.2 -5.7,-14.9 h 1.7 l 3.7,9.9 c 0.2,0.6 0.5,1.2 0.7,1.8 0.2,0.6 0.4,1.1 0.5,1.6 h 0.1 c 0.1,-0.5 0.3,-1 0.5,-1.6 0.2,-0.6 0.4,-1.2 0.6,-1.8 l 3.7,-9.9 h 1.7 l -5.7,14.9 z"
   id="path61"
   style="stroke-width:0.375065" />
			<path
   class="st2"
   d="m 551.8,204 c 1.7,0 2.9,0.4 3.8,1.2 0.9,0.8 1.2,2.1 1.2,3.9 v 10.1 h -1.2 l -0.3,-2.5 h -0.1 c -0.5,0.8 -1.2,1.5 -2,2 -0.8,0.5 -1.9,0.8 -3.3,0.8 -1.4,0 -2.6,-0.4 -3.4,-1.1 -0.8,-0.7 -1.2,-1.8 -1.2,-3.1 0,-1.5 0.6,-2.6 1.8,-3.4 1.2,-0.8 3,-1.2 5.3,-1.3 l 2.7,-0.1 v -1 c 0,-1.5 -0.3,-2.5 -0.9,-3.1 -0.6,-0.6 -1.5,-0.9 -2.6,-0.9 -0.8,0 -1.5,0.1 -2.2,0.3 -0.7,0.2 -1.4,0.5 -2.1,0.9 l -0.5,-1.3 c 0.7,-0.4 1.5,-0.6 2.3,-0.9 0.9,-0.4 1.8,-0.5 2.7,-0.5 z m 3.4,7.7 -2.5,0.1 c -1.9,0.1 -3.3,0.4 -4.3,1 -0.9,0.6 -1.4,1.4 -1.4,2.6 0,0.9 0.3,1.6 0.9,2.1 0.6,0.5 1.4,0.7 2.4,0.7 1.6,0 2.8,-0.4 3.6,-1.3 0.9,-0.9 1.3,-2.1 1.3,-3.7 z"
   id="path63"
   style="stroke-width:0.375065" />
			<path
   class="st2"
   d="m 566.9,204 c 1.7,0 3,0.4 3.9,1.3 0.9,0.9 1.3,2.3 1.3,4.1 v 9.8 h -1.6 v -9.7 c 0,-1.4 -0.3,-2.5 -1,-3.1 -0.6,-0.7 -1.6,-1 -2.9,-1 -3.3,0 -4.9,1.9 -4.9,5.7 v 8.1 h -1.6 v -14.9 h 1.3 l 0.2,2.6 h 0.1 c 0.4,-0.8 1,-1.5 1.9,-2.1 0.9,-0.6 2,-0.8 3.3,-0.8 z"
   id="path65"
   style="stroke-width:0.375065" />
			<path
   class="st2"
   d="m 581.5,219.5 c -2.2,0 -3.9,-0.7 -5.1,-2 -1.2,-1.3 -1.8,-3.2 -1.8,-5.7 0,-1.7 0.3,-3.1 0.9,-4.3 0.6,-1.2 1.4,-2.1 2.5,-2.7 1.1,-0.6 2.3,-0.9 3.8,-0.9 0.7,0 1.4,0.1 2,0.2 0.6,0.1 1.2,0.3 1.7,0.5 l -0.4,1.4 c -1,-0.5 -2.1,-0.7 -3.3,-0.7 -1.8,0 -3.1,0.6 -4.1,1.7 -1,1.1 -1.4,2.7 -1.4,4.7 0,1.9 0.4,3.4 1.3,4.6 0.9,1.2 2.1,1.7 3.9,1.7 0.7,0 1.5,-0.1 2.1,-0.2 0.7,-0.1 1.2,-0.3 1.8,-0.6 v 1.4 c -0.5,0.2 -1,0.4 -1.7,0.6 -0.7,0.2 -1.4,0.3 -2.2,0.3 z"
   id="path67"
   style="stroke-width:0.375065" />
			<path
   class="st2"
   d="m 593.1,204 c 1.3,0 2.3,0.3 3.2,0.9 0.9,0.6 1.5,1.4 1.9,2.4 0.4,1 0.6,2.2 0.6,3.5 v 1.1 h -10.7 c 0,2 0.5,3.5 1.4,4.5 0.9,1.1 2.2,1.6 4,1.6 0.9,0 1.8,-0.1 2.4,-0.2 0.7,-0.1 1.5,-0.4 2.3,-0.8 v 1.5 c -0.7,0.3 -1.5,0.6 -2.2,0.7 -0.7,0.2 -1.6,0.2 -2.6,0.2 -2.2,0 -3.9,-0.7 -5.1,-2.1 -1.2,-1.4 -1.8,-3.2 -1.8,-5.6 0,-1.5 0.3,-2.9 0.8,-4.1 0.5,-1.2 1.3,-2.1 2.2,-2.8 1.1,-0.5 2.3,-0.8 3.6,-0.8 z m 0,1.3 c -1.4,0 -2.5,0.5 -3.3,1.4 -0.9,0.9 -1.4,2.2 -1.5,3.9 h 9 c 0,-1.6 -0.3,-2.8 -1,-3.8 -0.7,-1 -1.8,-1.5 -3.2,-1.5 z"
   id="path69"
   style="stroke-width:0.375065" />
			<path
   class="st2"
   d="m 605,204.2 h 1.7 l 3.6,9.3 c 0.3,0.8 0.6,1.6 0.8,2.2 0.2,0.6 0.4,1.2 0.5,1.7 h 0.1 c 0.1,-0.4 0.3,-1 0.5,-1.7 0.2,-0.7 0.5,-1.4 0.8,-2.2 l 3.5,-9.3 h 1.7 l -6.7,17.6 c -0.5,1.3 -1.1,2.3 -1.8,3 -0.7,0.7 -1.6,1.1 -2.8,1.1 -0.4,0 -0.7,0 -1,-0.1 -0.3,-0.1 -0.6,-0.1 -0.8,-0.2 v -1.3 c 0.5,0.2 1,0.3 1.6,0.3 0.8,0 1.4,-0.2 1.9,-0.7 0.5,-0.5 0.9,-1.2 1.3,-2.2 l 1,-2.5 z"
   id="path71"
   style="stroke-width:0.375065" />
			<path
   class="st2"
   d="m 631.7,211.7 c 0,1.6 -0.3,2.9 -0.8,4.1 -0.5,1.2 -1.3,2.1 -2.3,2.7 -1,0.6 -2.2,1 -3.7,1 -1.4,0 -2.6,-0.3 -3.6,-1 -1,-0.6 -1.8,-1.5 -2.3,-2.7 -0.5,-1.2 -0.8,-2.5 -0.8,-4.1 0,-2.4 0.6,-4.3 1.8,-5.7 1.2,-1.4 2.9,-2.1 5,-2.1 1.4,0 2.6,0.3 3.6,1 1,0.7 1.7,1.5 2.2,2.7 0.7,1.2 0.9,2.6 0.9,4.1 z m -11.7,0 c 0,1.9 0.4,3.5 1.2,4.6 0.8,1.2 2.1,1.8 3.8,1.8 1.7,0 3,-0.6 3.8,-1.8 0.8,-1.2 1.2,-2.7 1.2,-4.6 0,-1.2 -0.2,-2.3 -0.5,-3.3 -0.3,-1 -0.9,-1.7 -1.6,-2.2 -0.7,-0.5 -1.7,-0.8 -2.9,-0.8 -1.7,0 -3,0.6 -3.8,1.7 -0.8,1.1 -1.2,2.6 -1.2,4.6 z"
   id="path73"
   style="stroke-width:0.375065" />
			<path
   class="st2"
   d="m 646.2,204.2 v 14.9 h -1.3 l -0.2,-2.6 h -0.1 c -0.4,0.8 -1,1.5 -1.9,2 -0.9,0.5 -1.9,0.8 -3.2,0.8 -3.5,0 -5.3,-1.8 -5.3,-5.4 v -9.8 h 1.6 v 9.7 c 0,1.4 0.3,2.5 1,3.2 0.7,0.7 1.6,1 2.9,1 3.3,0 4.9,-1.9 4.9,-5.7 v -8.1 z"
   id="path75"
   style="stroke-width:0.375065" />
			<path
   class="st2"
   d="m 655.9,204 c 0.8,0 1.5,0.1 2,0.3 l -0.2,1.5 c -0.3,-0.1 -0.6,-0.1 -0.9,-0.2 -0.3,0 -0.6,-0.1 -1,-0.1 -1.4,0 -2.5,0.5 -3.3,1.5 -0.8,1 -1.2,2.3 -1.2,4 v 8.2 h -1.6 v -14.9 h 1.3 l 0.2,2.8 h 0.1 c 0.4,-0.8 0.9,-1.6 1.7,-2.2 0.8,-0.6 1.7,-0.9 2.9,-0.9 z"
   id="path77"
   style="stroke-width:0.375065" />
			<path
   class="st2"
   d="m 674.7,215.2 c 0,1.4 -0.5,2.4 -1.5,3.1 -1,0.7 -2.4,1.1 -4.3,1.1 -1,0 -2,-0.1 -2.8,-0.3 -0.8,-0.2 -1.5,-0.4 -2,-0.7 V 217 c 0.7,0.3 1.4,0.6 2.2,0.8 0.8,0.2 1.7,0.3 2.6,0.3 1.5,0 2.5,-0.2 3.2,-0.7 0.7,-0.5 1,-1.2 1,-2 0,-0.8 -0.3,-1.5 -1,-1.9 -0.7,-0.4 -1.7,-0.9 -3.1,-1.4 -0.9,-0.3 -1.7,-0.6 -2.4,-1 -0.7,-0.4 -1.2,-0.7 -1.6,-1.2 -0.4,-0.5 -0.6,-1.2 -0.6,-2.1 0,-1.2 0.5,-2.1 1.5,-2.8 1,-0.7 2.3,-1 3.9,-1 0.9,0 1.7,0.1 2.5,0.3 0.8,0.2 1.5,0.4 2.1,0.7 l -0.6,1.3 c -0.6,-0.3 -1.2,-0.5 -2,-0.6 -0.7,-0.2 -1.5,-0.3 -2.2,-0.3 -1.2,0 -2.1,0.2 -2.8,0.6 -0.7,0.4 -1,1 -1,1.8 0,0.6 0.2,1.1 0.5,1.4 0.3,0.3 0.8,0.6 1.4,0.9 0.6,0.3 1.3,0.5 2.2,0.8 0.9,0.3 1.7,0.6 2.4,1 0.7,0.4 1.3,0.8 1.7,1.3 0.5,0.4 0.7,1.1 0.7,2 z"
   id="path79"
   style="stroke-width:0.375065" />
			<path
   class="st2"
   d="m 683,219.5 c -2.2,0 -3.9,-0.7 -5.1,-2 -1.2,-1.3 -1.8,-3.2 -1.8,-5.7 0,-1.7 0.3,-3.1 0.9,-4.3 0.6,-1.2 1.4,-2.1 2.5,-2.7 1.1,-0.6 2.3,-0.9 3.8,-0.9 0.7,0 1.4,0.1 2,0.2 0.6,0.1 1.2,0.3 1.7,0.5 l -0.4,1.4 c -1,-0.5 -2.1,-0.7 -3.3,-0.7 -1.8,0 -3.1,0.6 -4.1,1.7 -1,1.1 -1.4,2.7 -1.4,4.7 0,1.9 0.4,3.4 1.3,4.6 0.8,1.2 2.1,1.7 3.9,1.7 0.7,0 1.5,-0.1 2.1,-0.2 0.7,-0.1 1.2,-0.3 1.8,-0.6 v 1.4 c -0.5,0.2 -1,0.4 -1.7,0.6 -0.6,0.2 -1.4,0.3 -2.2,0.3 z"
   id="path81"
   style="stroke-width:0.375065" />
			<path
   class="st2"
   d="m 689.8,198.7 c 0.7,0 1.1,0.4 1.1,1.2 0,0.8 -0.4,1.2 -1.1,1.2 -0.7,0 -1.1,-0.4 -1.1,-1.2 0,-0.8 0.4,-1.2 1.1,-1.2 z m 0.8,5.5 v 14.9 H 689 v -14.9 z"
   id="path83"
   style="stroke-width:0.375065" />
			<path
   class="st2"
   d="m 699.8,204 c 1.3,0 2.3,0.3 3.2,0.9 0.9,0.6 1.5,1.4 1.9,2.4 0.4,1 0.6,2.2 0.6,3.5 v 1.1 h -10.7 c 0,2 0.5,3.5 1.4,4.5 0.9,1.1 2.2,1.6 4,1.6 0.9,0 1.8,-0.1 2.4,-0.2 0.7,-0.1 1.5,-0.4 2.3,-0.8 v 1.5 c -0.7,0.3 -1.5,0.6 -2.2,0.7 -0.7,0.2 -1.6,0.2 -2.6,0.2 -2.2,0 -3.9,-0.7 -5.1,-2.1 -1.2,-1.4 -1.8,-3.2 -1.8,-5.6 0,-1.5 0.3,-2.9 0.8,-4.1 0.5,-1.2 1.3,-2.1 2.2,-2.8 1,-0.5 2.2,-0.8 3.6,-0.8 z m 0,1.3 c -1.4,0 -2.5,0.5 -3.3,1.4 -0.9,0.9 -1.4,2.2 -1.5,3.9 h 9 c 0,-1.6 -0.3,-2.8 -1,-3.8 -0.8,-1 -1.8,-1.5 -3.2,-1.5 z"
   id="path85"
   style="stroke-width:0.375065" />
			<path
   class="st2"
   d="m 714.9,204 c 1.7,0 3,0.4 3.9,1.3 0.9,0.9 1.3,2.3 1.3,4.1 v 9.8 h -1.6 v -9.7 c 0,-1.4 -0.3,-2.5 -1,-3.1 -0.6,-0.7 -1.6,-1 -2.9,-1 -3.3,0 -4.9,1.9 -4.9,5.7 v 8.1 h -1.6 v -14.9 h 1.3 l 0.2,2.6 h 0.1 c 0.4,-0.8 1,-1.5 1.9,-2.1 1,-0.6 2,-0.8 3.3,-0.8 z"
   id="path87"
   style="stroke-width:0.375065" />
			<path
   class="st2"
   d="m 729.6,219.5 c -2.2,0 -3.9,-0.7 -5.1,-2 -1.2,-1.3 -1.8,-3.2 -1.8,-5.7 0,-1.7 0.3,-3.1 0.9,-4.3 0.6,-1.2 1.4,-2.1 2.5,-2.7 1.1,-0.6 2.3,-0.9 3.8,-0.9 0.7,0 1.4,0.1 2,0.2 0.6,0.1 1.2,0.3 1.7,0.5 l -0.4,1.4 c -1,-0.5 -2.1,-0.7 -3.3,-0.7 -1.8,0 -3.1,0.6 -4.1,1.7 -1,1.1 -1.4,2.7 -1.4,4.7 0,1.9 0.4,3.4 1.3,4.6 0.9,1.2 2.1,1.7 3.9,1.7 0.7,0 1.5,-0.1 2.1,-0.2 0.7,-0.1 1.2,-0.3 1.8,-0.6 v 1.4 c -0.5,0.2 -1,0.4 -1.7,0.6 -0.7,0.2 -1.4,0.3 -2.2,0.3 z"
   id="path89"
   style="stroke-width:0.375065" />
			<path
   class="st2"
   d="m 741.2,204 c 1.3,0 2.3,0.3 3.2,0.9 0.9,0.6 1.5,1.4 1.9,2.4 0.4,1 0.6,2.2 0.6,3.5 v 1.1 h -10.7 c 0,2 0.5,3.5 1.4,4.5 0.9,1.1 2.2,1.6 4,1.6 0.9,0 1.8,-0.1 2.4,-0.2 0.7,-0.1 1.5,-0.4 2.3,-0.8 v 1.5 c -0.7,0.3 -1.5,0.6 -2.2,0.7 -0.7,0.2 -1.6,0.2 -2.6,0.2 -2.2,0 -3.9,-0.7 -5.1,-2.1 -1.2,-1.4 -1.8,-3.2 -1.8,-5.6 0,-1.5 0.3,-2.9 0.8,-4.1 0.5,-1.2 1.3,-2.1 2.2,-2.8 1,-0.5 2.2,-0.8 3.6,-0.8 z m 0,1.3 c -1.4,0 -2.5,0.5 -3.3,1.4 -0.9,0.9 -1.4,2.2 -1.5,3.9 h 9 c 0,-1.6 -0.3,-2.8 -1,-3.8 -0.7,-1 -1.8,-1.5 -3.2,-1.5 z"
   id="path91"
   style="stroke-width:0.375065" />
		</g><use
   xlink:href="#SVGID_1_"
   style="overflow:visible;fill:#27aae1;stroke-width:0.375065"
   id="use100"
   x="0"
   y="0"
   width="100%"
   height="100%"
   transform="matrix(2.6662076,0,0,2.6662076,-48.153401,-37.811892)" /><path
   class="st4"
   d="m 397.36989,246.67246 h 38.92663 m -38.39339,53.59077 -0.26662,-53.59077 -15.73063,-15.73063 v -15.464 h 93.58389 v 15.73062 l -15.73062,15.73063 v 202.8984 c 0,13.06442 -10.39821,23.46262 -23.46263,23.46262 H 420.5659 c -12.7978,0 -23.46263,-10.3982 -23.46263,-23.46262 v -15.73063"
   id="path105"
   style="stroke-width:8;stroke-miterlimit:10;stroke-dasharray:none" /><path
   class="st5"
   d="m 319.51663,160.28733 v -7.732 c 0,-29.06166 26.39545,-46.92525 55.45712,-46.92525 h -0.26663 c 29.06167,0 54.12402,25.59559 54.12402,54.65725 v 31.19463"
   id="path107"
   style="stroke-width:8;stroke-miterlimit:10;stroke-dasharray:none" /><path
   class="st4"
   d="m 280.32338,184.2832 v 15.73063 l 15.73062,15.73062 v 57.32346 c -44.79229,10.66483 -78.11988,50.65795 -78.11988,98.64969 0,55.99035 45.32553,101.5825 101.58251,101.5825 55.99036,0 101.58251,-45.32552 101.58251,-101.5825 0,-47.99174 -33.3276,-87.98486 -78.11989,-98.64969 v -57.59008 l 15.73063,-15.73062 v -15.73063 h -78.3865 z m 39.19325,31.19463 H 296.054"
   id="path109"
   style="stroke-width:8;stroke-miterlimit:10;stroke-dasharray:none" />
<path
   d="m 2132.3924,175.84053 q -14.6412,0 -26.145,6.79906 -11.5038,6.79906 -19.3473,19.94392 -7.3207,12.69158 -11.5039,31.27568 -4.1832,18.58411 -4.1832,41.70092 0,31.72896 6.7977,53.48596 7.3207,21.757 21.9619,32.6355 15.1641,10.42523 37.1259,10.42523 20.3931,0 39.2176,-5.89252 18.8244,-5.89252 37.6488,-14.50467 v 70.71025 q -19.8702,9.06542 -42.3549,13.59813 -22.4848,4.53271 -47.584,4.53271 -49.6756,0 -83.1412,-19.49065 -32.9427,-19.94392 -49.6756,-56.65885 -16.2099,-37.16821 -16.2099,-89.29436 0,-37.16821 9.9351,-67.53735 10.458,-30.82242 30.3283,-53.03269 19.8702,-22.66354 47.5839,-34.44859 28.2367,-12.23831 64.8397,-12.23831 25.0992,0 50.1985,5.43925 25.6221,5.43925 49.6755,17.22429 l -25.6221,65.271 q -16.7328,-9.06541 -33.9885,-14.50466 -16.7329,-5.43925 -35.5573,-5.43925 z"
   id="path11093"
   style="font-size:40px;line-height:1.25;font-family:'Noto Sans';-inkscape-font-specification:'Noto Sans, @wght=900,wdth=75.8';font-variation-settings:'wdth' 75.8, 'wght' 900;white-space:pre;fill:#808285;stroke-width:1" /><path
   d="m 2483.0641,310.0087 q 0,26.2897 -7.3206,50.31306 -7.3206,23.57008 -23.0076,41.70092 -15.1641,18.13083 -39.2176,28.55606 -23.5305,9.97196 -57.5191,9.97196 -30.8511,0 -54.3816,-9.97196 -23.5306,-10.42523 -39.7405,-28.10279 -15.687,-18.13084 -24.0534,-41.70092 -7.8435,-24.02335 -7.8435,-50.76633 0,-38.07476 13.5954,-67.08409 14.1183,-29.00933 42.355,-45.32708 28.2366,-16.77102 71.6373,-16.77102 37.126,0 65.3626,15.4112 28.2367,14.95794 43.9237,43.96728 16.2099,28.55606 16.2099,69.80371 z m -162.0992,0.45327 q 0,22.21027 3.6603,37.62148 3.6603,14.95793 11.5038,22.66354 8.3664,7.7056 20.916,7.7056 13.0726,0 20.3932,-7.7056 7.8435,-7.70561 10.9809,-22.66354 3.6603,-15.41121 3.6603,-38.07475 0,-22.66355 -3.6603,-37.16821 -3.1374,-14.95794 -10.9809,-22.21027 -7.3206,-7.70561 -20.9161,-7.70561 -18.3015,0 -27.1908,16.77102 -8.3664,16.77102 -8.3664,50.76634 z"
   id="path11095"
   style="font-size:40px;line-height:1.25;font-family:'Noto Sans';-inkscape-font-specification:'Noto Sans, @wght=900,wdth=75.8';font-variation-settings:'wdth' 75.8, 'wght' 900;white-space:pre;fill:#808285;stroke-width:1" /><path
   d="m 2659.517,180.82651 q 39.7404,0 62.7481,23.57008 23.5305,23.11681 23.5305,68.4439 v 163.1775 h -89.416 V 297.31711 q 0,-24.92989 -6.2748,-37.62148 -5.7519,-12.69158 -21.9619,-12.69158 -20.916,0 -28.7595,17.67756 -7.3206,17.22429 -7.3206,58.47194 v 112.86444 h -89.416 V 185.35921 h 69.0229 l 10.9809,31.72896 h 4.7061 q 7.3206,-11.78504 17.7786,-19.94391 10.458,-8.15888 24.0534,-12.23832 13.5954,-4.07943 30.3283,-4.07943 z"
   id="path11097"
   style="font-size:40px;line-height:1.25;font-family:'Noto Sans';-inkscape-font-specification:'Noto Sans, @wght=900,wdth=75.8';font-variation-settings:'wdth' 75.8, 'wght' 900;white-space:pre;fill:#808285;stroke-width:1" /><text
   xml:space="preserve"
   id="text13877"
   style="font-style:normal;font-weight:normal;font-size:40px;line-height:1.25;font-family:sans-serif;white-space:pre;shape-inside:url(#rect13879);fill:#808285;fill-opacity:1;stroke:none;stroke-width:0.987563"
   transform="matrix(1.0814019,0,0,0.94815871,204.92897,-291.02611)"><tspan
     x="1152.1211"
     y="912.33711"
     id="tspan41451"><tspan
       style="font-size:131.675px;font-family:'Noto Sans';-inkscape-font-specification:'Noto Sans, Normal'"
       id="tspan41449">Copenhagen - 2025</tspan></tspan></text></svg>
