<?xml version="1.0" encoding="utf-8"?>
<!-- Generator: Adobe Illustrator 24.3.0, SVG Export Plug-In . SVG Version: 6.00 Build 0)  -->
<svg version="1.1" xmlns="http://www.w3.org/2000/svg" xmlns:xlink="http://www.w3.org/1999/xlink" x="0px" y="0px"
	 viewBox="0 0 778.5 283.9" style="enable-background:new 0 0 778.5 283.9;" xml:space="preserve">
<style type="text/css">
	.st0{fill:#27AAE1;}
	.st1{fill:#808285;}
	.st2{fill:#6D6E71;}
	.st3{clip-path:url(#SVGID_2_);}
	.st4{fill:#27AAE1;stroke:#FFFFFF;stroke-width:4.252;stroke-linecap:round;stroke-linejoin:round;stroke-miterlimit:10;}
	.st5{fill:#27AAE1;stroke:#FFFFFF;stroke-width:4.252;stroke-linecap:round;stroke-miterlimit:10;}
</style>
<g id="Code">
	<path class="st0" d="M154.1,212.1c-48.3,0-87.6-39.3-87.6-87.6s39.3-87.6,87.6-87.6s87.6,39.3,87.6,87.6S202.4,212.1,154.1,212.1z
		 M154.1,51.4c-40.2,0-73,32.7-73,73s32.7,73,73,73s73-32.7,73-73S194.3,51.4,154.1,51.4z"/>
</g>
<g id="Layer_1">
	<polygon class="st0" points="92.1,201.1 101.7,191.2 89.6,179.5 80.1,189.3 75,188.9 28.9,236.4 46.6,253.6 92.8,206.1 	"/>
	<g>
		<g>
			<path class="st1" d="M342,140.1c0,6.6-1.6,12.7-4.9,18.5c-3.3,5.7-8.4,10.4-15.2,14c-6.9,3.6-15.7,5.4-26.7,5.4
				c-5.5,0-10.2-0.2-14.3-0.8c-4.1-0.5-7.9-1.3-11.5-2.4c-3.6-1.1-7.2-2.6-11-4.3v-28.8c6.5,3.2,13,5.7,19.6,7.4
				c6.6,1.7,12.5,2.6,17.9,2.6c4.8,0,8.3-0.8,10.5-2.5c2.2-1.7,3.3-3.8,3.3-6.4c0-3.1-1.6-5.6-4.9-7.5c-3.3-1.9-8.8-4.6-16.6-8.2
				c-5.9-2.7-11-5.6-15.4-8.7c-4.3-3.1-7.7-6.9-10-11.4c-2.3-4.5-3.5-10.1-3.5-16.9c0-7.7,1.9-14.1,5.7-19.3
				c3.8-5.2,9.1-9.1,15.8-11.7c6.7-2.6,14.6-3.9,23.5-3.9c7.8,0,14.8,0.9,21.1,2.7c6.2,1.8,11.8,3.7,16.7,5.9l-9.9,24.9
				c-5.1-2.3-10.2-4.2-15.1-5.6c-5-1.4-9.6-2.1-13.8-2.1c-4.2,0-7.3,0.7-9.2,2.2c-1.9,1.4-2.8,3.3-2.8,5.5c0,1.9,0.7,3.6,2.2,5
				c1.4,1.5,3.9,3,7.3,4.8c3.4,1.7,8.1,3.9,14,6.6c5.8,2.7,10.7,5.5,14.8,8.5c4.1,3,7.2,6.6,9.4,10.9C340.9,128.8,342,134,342,140.1
				z"/>
			<path class="st1" d="M397.4,178.1c-14,0-25.2-3.8-33.6-11.4c-8.4-7.6-12.5-19.6-12.5-36.1c0-11.1,2.1-20.3,6.4-27.4
				c4.2-7.1,10-12.4,17.3-15.8c7.3-3.4,15.6-5.1,25-5.1c5.7,0,11.1,0.6,16.1,1.9c5.1,1.3,9.8,3,14.1,5.1l-9.4,23.6
				c-3.8-1.7-7.4-3-10.7-4c-3.3-1-6.7-1.5-10.2-1.5c-4.8,0-8.7,1.9-11.7,5.7c-3,3.8-4.5,9.6-4.5,17.4c0,8,1.5,13.7,4.5,17.1
				c3,3.4,7,5.1,11.9,5.1c4.6,0,9.2-0.7,13.8-2.2c4.6-1.4,9-3.5,13.1-6v25.4c-3.9,2.6-8.2,4.6-13,6
				C409.3,177.4,403.7,178.1,397.4,178.1z"/>
			<path class="st1" d="M454.9,46.7c4.6,0,8.6,0.9,12,2.8c3.4,1.9,5.1,5.7,5.1,11.4c0,5.5-1.7,9.2-5.1,11.1c-3.4,2-7.4,2.9-12,2.9
				c-4.7,0-8.7-1-12-2.9c-3.3-1.9-4.9-5.7-4.9-11.1c0-5.7,1.6-9.5,4.9-11.4C446.2,47.6,450.2,46.7,454.9,46.7z M470.8,84v92.5h-31.9
				V84H470.8z"/>
			<path class="st0" d="M541.3,81.8c-7.6,0-13.5,3.1-17.9,9.4c-4.3,6.2-6.5,14.9-6.5,26.1c0,11.3,2.1,19.8,6.4,25.7
				c4.3,5.9,10.9,8.8,19.8,8.8c5.2,0,10.3-0.7,15.3-2.2c5-1.4,9.9-3.2,15-5.4v27.3c-5.2,2.3-10.6,4-16.2,5.1
				c-5.6,1.1-11.4,1.6-17.6,1.6c-13,0-23.7-2.6-31.9-7.7c-8.2-5.1-14.2-12.3-18.1-21.5c-3.9-9.2-5.9-19.8-5.9-31.9
				s2.2-22.7,6.7-31.9c4.5-9.3,11-16.5,19.6-21.8c8.6-5.3,19.1-7.9,31.5-7.9c5.8,0,11.9,0.7,18.2,2c6.4,1.3,12.6,3.5,18.7,6.4
				l-9.9,25.4c-4.3-2.1-8.8-3.9-13.2-5.3C551.1,82.5,546.3,81.8,541.3,81.8z"/>
			<path class="st0" d="M633.3,82.3c11.7,0,20.8,2.9,27.4,8.7c6.6,5.8,9.9,14,9.9,24.7v60.7h-22.1l-6.2-12.2h-0.7
				c-2.7,3.2-5.4,5.9-8,7.9c-2.7,2.1-5.8,3.6-9.4,4.5c-3.6,0.9-7.9,1.4-13,1.4c-8,0-14.7-2.5-20.1-7.4c-5.4-4.9-8-12.4-8-22.6
				c0-9.9,3.4-17.3,10.3-22.1c6.9-4.8,16.8-7.5,29.8-8l15.4-0.5v-1.3c0-4.1-1-7-3-8.8c-2-1.7-4.7-2.6-8.2-2.6
				c-3.7,0-7.7,0.6-12.2,1.9c-4.5,1.3-9,2.9-13.5,4.9l-9.2-21.1c5.4-2.8,11.4-4.9,18.1-6.3C617.4,83,624.9,82.3,633.3,82.3z
				 M638.8,135.1l-7.4,0.3c-5.9,0.2-10,1.3-12.4,3.1s-3.5,4.4-3.5,7.8c0,3.1,0.8,5.4,2.5,6.9c1.7,1.5,3.9,2.3,6.7,2.3
				c3.9,0,7.2-1.2,9.9-3.7c2.7-2.5,4.1-5.6,4.1-9.5V135.1z"/>
			<path class="st0" d="M730.9,152.9c2.8,0,5.4-0.3,7.9-0.9c2.5-0.6,5-1.4,7.5-2.3v23.2c-3.5,1.4-7.1,2.7-11,3.7
				c-3.9,1-8.9,1.5-14.9,1.5s-11.3-0.9-15.9-2.8c-4.6-1.9-8.1-5.2-10.6-9.8c-2.5-4.6-3.8-11.1-3.8-19.5v-38.1h-11.2v-13l14.2-10
				l8.2-19.4h20.9V84H745v23.9h-22.7v35.9C722.2,149.8,725.1,152.9,730.9,152.9z"/>
		</g>
		<g>
			<path class="st2" d="M265.3,204c1.7,0,2.9,0.4,3.8,1.2s1.2,2.1,1.2,3.9v10.1h-1.2l-0.3-2.5h-0.1c-0.5,0.8-1.2,1.5-2,2
				c-0.8,0.5-1.9,0.8-3.3,0.8c-1.4,0-2.6-0.4-3.4-1.1c-0.8-0.7-1.2-1.8-1.2-3.1c0-1.5,0.6-2.6,1.8-3.4c1.2-0.8,3-1.2,5.3-1.3
				l2.7-0.1v-1c0-1.5-0.3-2.5-0.9-3.1c-0.6-0.6-1.5-0.9-2.6-0.9c-0.8,0-1.5,0.1-2.2,0.3c-0.7,0.2-1.4,0.5-2.1,0.9l-0.5-1.3
				c0.7-0.4,1.5-0.6,2.3-0.9C263.5,204.1,264.4,204,265.3,204z M268.7,211.7l-2.5,0.1c-1.9,0.1-3.3,0.4-4.3,1s-1.4,1.4-1.4,2.6
				c0,0.9,0.3,1.6,0.9,2.1c0.6,0.5,1.4,0.7,2.4,0.7c1.6,0,2.8-0.4,3.6-1.3c0.9-0.9,1.3-2.1,1.3-3.7V211.7z"/>
			<path class="st2" d="M279.1,219.5c-2,0-3.5-0.6-4.6-1.9c-1.1-1.3-1.6-3.2-1.6-5.7c0-2.6,0.6-4.6,1.7-5.9c1.1-1.3,2.7-2,4.7-2
				c1.3,0,2.3,0.3,3.1,0.8s1.4,1.2,1.7,2.1h0.1c0-0.5,0-0.9-0.1-1.5c0-0.5,0-1,0-1.4v-6.1h1.6v21.4h-1.3l-0.2-2.6H284
				c-0.4,0.8-1,1.5-1.8,2C281.4,219.2,280.4,219.5,279.1,219.5z M279.2,218.1c1.7,0,2.9-0.5,3.7-1.6s1.1-2.6,1.1-4.5v-0.3
				c0-2.1-0.4-3.6-1.1-4.7s-1.9-1.6-3.6-1.6c-1.6,0-2.8,0.6-3.7,1.7c-0.8,1.1-1.2,2.7-1.2,4.8c0,2,0.4,3.6,1.2,4.6
				S277.6,218.1,279.2,218.1z"/>
			<path class="st2" d="M292.4,219.2l-5.7-14.9h1.7l3.7,9.9c0.2,0.6,0.5,1.2,0.7,1.8c0.2,0.6,0.4,1.1,0.5,1.6h0.1
				c0.1-0.5,0.3-1,0.5-1.6c0.2-0.6,0.4-1.2,0.6-1.8l3.7-9.9h1.7l-5.7,14.9H292.4z"/>
			<path class="st2" d="M306.2,204c1.7,0,2.9,0.4,3.8,1.2s1.2,2.1,1.2,3.9v10.1H310l-0.3-2.5h-0.1c-0.5,0.8-1.2,1.5-2,2
				c-0.8,0.5-1.9,0.8-3.3,0.8c-1.4,0-2.6-0.4-3.4-1.1c-0.8-0.7-1.2-1.8-1.2-3.1c0-1.5,0.6-2.6,1.8-3.4c1.2-0.8,3-1.2,5.3-1.3
				l2.7-0.1v-1c0-1.5-0.3-2.5-0.9-3.1c-0.6-0.6-1.5-0.9-2.6-0.9c-0.8,0-1.5,0.1-2.2,0.3c-0.7,0.2-1.4,0.5-2.1,0.9l-0.5-1.3
				c0.7-0.4,1.5-0.6,2.3-0.9C304.4,204.1,305.3,204,306.2,204z M309.6,211.7l-2.5,0.1c-1.9,0.1-3.3,0.4-4.3,1s-1.4,1.4-1.4,2.6
				c0,0.9,0.3,1.6,0.9,2.1c0.6,0.5,1.4,0.7,2.4,0.7c1.6,0,2.8-0.4,3.6-1.3c0.9-0.9,1.3-2.1,1.3-3.7V211.7z"/>
			<path class="st2" d="M321.2,204c1.7,0,3,0.4,3.9,1.3c0.9,0.9,1.3,2.3,1.3,4.1v9.8h-1.6v-9.7c0-1.4-0.3-2.5-1-3.1
				c-0.6-0.7-1.6-1-2.9-1c-3.3,0-4.9,1.9-4.9,5.7v8.1h-1.6v-14.9h1.3l0.2,2.6h0.1c0.4-0.8,1-1.5,1.9-2.1
				C318.9,204.2,319.9,204,321.2,204z"/>
			<path class="st2" d="M335.9,219.5c-2.2,0-3.9-0.7-5.1-2c-1.2-1.3-1.8-3.2-1.8-5.7c0-1.7,0.3-3.1,0.9-4.3c0.6-1.2,1.4-2.1,2.5-2.7
				c1.1-0.6,2.3-0.9,3.8-0.9c0.7,0,1.4,0.1,2,0.2s1.2,0.3,1.7,0.5l-0.4,1.4c-1-0.5-2.1-0.7-3.3-0.7c-1.8,0-3.1,0.6-4.1,1.7
				c-1,1.1-1.4,2.7-1.4,4.7c0,1.9,0.4,3.4,1.3,4.6s2.1,1.7,3.9,1.7c0.7,0,1.5-0.1,2.1-0.2c0.7-0.1,1.2-0.3,1.8-0.6v1.4
				c-0.5,0.2-1,0.4-1.7,0.6C337.4,219.4,336.7,219.5,335.9,219.5z"/>
			<path class="st2" d="M347.5,204c1.3,0,2.3,0.3,3.2,0.9c0.9,0.6,1.5,1.4,1.9,2.4c0.4,1,0.6,2.2,0.6,3.5v1.1h-10.7
				c0,2,0.5,3.5,1.4,4.5c0.9,1.1,2.2,1.6,4,1.6c0.9,0,1.8-0.1,2.4-0.2c0.7-0.1,1.5-0.4,2.3-0.8v1.5c-0.7,0.3-1.5,0.6-2.2,0.7
				c-0.7,0.2-1.6,0.2-2.6,0.2c-2.2,0-3.9-0.7-5.1-2.1c-1.2-1.4-1.8-3.2-1.8-5.6c0-1.5,0.3-2.9,0.8-4.1c0.5-1.2,1.3-2.1,2.2-2.8
				S346.1,204,347.5,204z M347.5,205.3c-1.4,0-2.5,0.5-3.3,1.4s-1.4,2.2-1.5,3.9h9c0-1.6-0.3-2.8-1-3.8
				C349.9,205.8,348.9,205.3,347.5,205.3z"/>
			<path class="st2" d="M359.4,204.2h1.7l3.6,9.3c0.3,0.8,0.6,1.6,0.8,2.2s0.4,1.2,0.5,1.7h0.1c0.1-0.4,0.3-1,0.5-1.7
				c0.2-0.7,0.5-1.4,0.8-2.2l3.5-9.3h1.7l-6.7,17.6c-0.5,1.3-1.1,2.3-1.8,3c-0.7,0.7-1.6,1.1-2.8,1.1c-0.4,0-0.7,0-1-0.1
				c-0.3-0.1-0.6-0.1-0.8-0.2v-1.3c0.5,0.2,1,0.3,1.6,0.3c0.8,0,1.4-0.2,1.9-0.7c0.5-0.5,0.9-1.2,1.3-2.2l1-2.5L359.4,204.2z"/>
			<path class="st2" d="M386.1,211.7c0,1.6-0.3,2.9-0.8,4.1c-0.5,1.2-1.3,2.1-2.3,2.7c-1,0.6-2.2,1-3.7,1c-1.4,0-2.6-0.3-3.6-1
				c-1-0.6-1.8-1.5-2.3-2.7s-0.8-2.5-0.8-4.1c0-2.4,0.6-4.3,1.8-5.7c1.2-1.4,2.9-2.1,5-2.1c1.4,0,2.6,0.3,3.6,1
				c1,0.6,1.7,1.5,2.2,2.7C385.9,208.8,386.1,210.2,386.1,211.7z M374.4,211.7c0,1.9,0.4,3.5,1.2,4.6c0.8,1.2,2.1,1.8,3.8,1.8
				c1.7,0,3-0.6,3.8-1.8c0.8-1.2,1.2-2.7,1.2-4.6c0-1.2-0.2-2.3-0.5-3.3c-0.3-1-0.9-1.7-1.6-2.2c-0.7-0.5-1.7-0.8-2.9-0.8
				c-1.7,0-3,0.6-3.8,1.7C374.8,208.2,374.4,209.7,374.4,211.7z"/>
			<path class="st2" d="M400.5,204.2v14.9h-1.3l-0.2-2.6h-0.1c-0.4,0.8-1,1.5-1.9,2c-0.9,0.5-1.9,0.8-3.2,0.8
				c-3.5,0-5.3-1.8-5.3-5.4v-9.8h1.6v9.7c0,1.4,0.3,2.5,1,3.2c0.6,0.7,1.6,1,2.9,1c3.3,0,4.9-1.9,4.9-5.7v-8.1H400.5z"/>
			<path class="st2" d="M410.2,204c0.8,0,1.5,0.1,2,0.3l-0.2,1.5c-0.3-0.1-0.6-0.1-0.9-0.2c-0.3,0-0.6-0.1-1-0.1
				c-1.4,0-2.5,0.5-3.3,1.5s-1.2,2.3-1.2,4v8.2h-1.6v-14.9h1.3l0.2,2.8h0.1c0.4-0.8,0.9-1.6,1.7-2.2
				C408.2,204.3,409.1,204,410.2,204z"/>
			<path class="st2" d="M425,219.5c-2,0-3.5-0.6-4.6-1.9c-1.1-1.3-1.6-3.2-1.6-5.7c0-2.6,0.6-4.6,1.7-5.9c1.1-1.3,2.7-2,4.7-2
				c1.3,0,2.3,0.3,3.1,0.8c0.8,0.5,1.4,1.2,1.7,2.1h0.1c0-0.5,0-0.9-0.1-1.5c0-0.5,0-1,0-1.4v-6.1h1.6v21.4h-1.3l-0.2-2.6H430
				c-0.4,0.8-1,1.5-1.8,2C427.4,219.2,426.4,219.5,425,219.5z M425.2,218.1c1.7,0,2.9-0.5,3.7-1.6s1.1-2.6,1.1-4.5v-0.3
				c0-2.1-0.4-3.6-1.1-4.7s-1.9-1.6-3.6-1.6c-1.6,0-2.8,0.6-3.7,1.7c-0.8,1.1-1.2,2.7-1.2,4.8c0,2,0.4,3.6,1.2,4.6
				C422.4,217.6,423.6,218.1,425.2,218.1z"/>
			<path class="st2" d="M440.4,204c1.7,0,2.9,0.4,3.8,1.2s1.2,2.1,1.2,3.9v10.1h-1.2l-0.3-2.5h-0.1c-0.5,0.8-1.2,1.5-2,2
				c-0.8,0.5-1.9,0.8-3.3,0.8c-1.4,0-2.6-0.4-3.4-1.1c-0.8-0.7-1.2-1.8-1.2-3.1c0-1.5,0.6-2.6,1.8-3.4c1.2-0.8,3-1.2,5.3-1.3
				l2.7-0.1v-1c0-1.5-0.3-2.5-0.9-3.1s-1.5-0.9-2.6-0.9c-0.8,0-1.5,0.1-2.2,0.3c-0.7,0.2-1.4,0.5-2.1,0.9l-0.5-1.3
				c0.7-0.4,1.5-0.6,2.3-0.9C438.6,204.1,439.5,204,440.4,204z M443.8,211.7l-2.5,0.1c-1.9,0.1-3.3,0.4-4.3,1s-1.4,1.4-1.4,2.6
				c0,0.9,0.3,1.6,0.9,2.1s1.4,0.7,2.4,0.7c1.6,0,2.8-0.4,3.6-1.3c0.9-0.9,1.3-2.1,1.3-3.7V211.7z"/>
			<path class="st2" d="M453,218.1c0.4,0,0.8,0,1.2-0.1c0.4-0.1,0.7-0.1,1-0.2v1.3c-0.3,0.1-0.7,0.2-1.1,0.3
				c-0.4,0.1-0.8,0.1-1.3,0.1c-1.2,0-2.2-0.4-2.9-1.1c-0.7-0.7-1-1.8-1-3.4v-9.5h-2.2v-0.9l2.2-0.5l0.6-3.5h1v3.6h4.6v1.3h-4.6v9.4
				C450.4,217.1,451.3,218.1,453,218.1z"/>
			<path class="st2" d="M462.2,204c1.7,0,2.9,0.4,3.8,1.2s1.2,2.1,1.2,3.9v10.1H466l-0.3-2.5h-0.1c-0.5,0.8-1.2,1.5-2,2
				c-0.8,0.5-1.9,0.8-3.3,0.8c-1.4,0-2.6-0.4-3.4-1.1c-0.8-0.7-1.2-1.8-1.2-3.1c0-1.5,0.6-2.6,1.8-3.4c1.2-0.8,3-1.2,5.3-1.3
				l2.7-0.1v-1c0-1.5-0.3-2.5-0.9-3.1c-0.6-0.6-1.5-0.9-2.6-0.9c-0.8,0-1.5,0.1-2.2,0.3s-1.4,0.5-2.1,0.9l-0.5-1.3
				c0.7-0.4,1.5-0.6,2.3-0.9C460.4,204.1,461.3,204,462.2,204z M465.6,211.7l-2.5,0.1c-1.9,0.1-3.3,0.4-4.3,1s-1.4,1.4-1.4,2.6
				c0,0.9,0.3,1.6,0.9,2.1c0.6,0.5,1.4,0.7,2.4,0.7c1.6,0,2.8-0.4,3.6-1.3c0.9-0.9,1.3-2.1,1.3-3.7V211.7z"/>
			<path class="st2" d="M480.7,218.1c0.4,0,0.8,0,1.2-0.1c0.4-0.1,0.7-0.1,1-0.2v1.3c-0.3,0.1-0.7,0.2-1.1,0.3s-0.8,0.1-1.3,0.1
				c-1.2,0-2.2-0.4-2.9-1.1c-0.7-0.7-1-1.8-1-3.4v-9.5h-2.2v-0.9l2.2-0.5l0.6-3.5h1v3.6h4.6v1.3h-4.6v9.4
				C478.1,217.1,479,218.1,480.7,218.1z"/>
			<path class="st2" d="M497.1,211.7c0,1.6-0.3,2.9-0.8,4.1c-0.5,1.2-1.3,2.1-2.3,2.7s-2.2,1-3.7,1c-1.4,0-2.6-0.3-3.6-1
				c-1-0.6-1.8-1.5-2.3-2.7c-0.5-1.2-0.8-2.5-0.8-4.1c0-2.4,0.6-4.3,1.8-5.7c1.2-1.4,2.9-2.1,5-2.1c1.4,0,2.6,0.3,3.6,1
				s1.7,1.5,2.2,2.7C496.8,208.8,497.1,210.2,497.1,211.7z M485.4,211.7c0,1.9,0.4,3.5,1.2,4.6c0.8,1.2,2.1,1.8,3.8,1.8
				c1.7,0,3-0.6,3.8-1.8c0.8-1.2,1.2-2.7,1.2-4.6c0-1.2-0.2-2.3-0.5-3.3c-0.3-1-0.9-1.7-1.6-2.2s-1.7-0.8-2.9-0.8
				c-1.7,0-3,0.6-3.8,1.7C485.8,208.2,485.4,209.7,485.4,211.7z"/>
			<path class="st2" d="M510.9,204c1.7,0,2.9,0.4,3.8,1.2s1.2,2.1,1.2,3.9v10.1h-1.2l-0.3-2.5h-0.1c-0.5,0.8-1.2,1.5-2,2
				c-0.8,0.5-1.9,0.8-3.3,0.8c-1.4,0-2.6-0.4-3.4-1.1c-0.8-0.7-1.2-1.8-1.2-3.1c0-1.5,0.6-2.6,1.8-3.4c1.2-0.8,3-1.2,5.3-1.3
				l2.7-0.1v-1c0-1.5-0.3-2.5-0.9-3.1s-1.5-0.9-2.6-0.9c-0.8,0-1.5,0.1-2.2,0.3s-1.4,0.5-2.1,0.9l-0.5-1.3c0.7-0.4,1.5-0.6,2.3-0.9
				C509.2,204.1,510,204,510.9,204z M514.4,211.7l-2.5,0.1c-1.9,0.1-3.3,0.4-4.3,1c-0.9,0.6-1.4,1.4-1.4,2.6c0,0.9,0.3,1.6,0.9,2.1
				c0.6,0.5,1.4,0.7,2.4,0.7c1.6,0,2.8-0.4,3.6-1.3c0.9-0.9,1.3-2.1,1.3-3.7V211.7z"/>
			<path class="st2" d="M524.7,219.5c-2,0-3.5-0.6-4.6-1.9c-1.1-1.3-1.6-3.2-1.6-5.7c0-2.6,0.6-4.6,1.7-5.9c1.1-1.3,2.7-2,4.7-2
				c1.3,0,2.3,0.3,3.1,0.8c0.8,0.5,1.4,1.2,1.7,2.1h0.1c0-0.5,0-0.9-0.1-1.5s0-1,0-1.4v-6.1h1.6v21.4h-1.3l-0.2-2.6h-0.1
				c-0.4,0.8-1,1.5-1.8,2C527.1,219.2,526,219.5,524.7,219.5z M524.9,218.1c1.7,0,3-0.5,3.7-1.6c0.7-1,1.1-2.6,1.1-4.5v-0.3
				c0-2.1-0.4-3.6-1.1-4.7c-0.7-1.1-1.9-1.6-3.6-1.6c-1.6,0-2.8,0.6-3.7,1.7c-0.8,1.1-1.2,2.7-1.2,4.8c0,2,0.4,3.6,1.2,4.6
				C522.1,217.6,523.3,218.1,524.9,218.1z"/>
			<path class="st2" d="M538,219.2l-5.7-14.9h1.7l3.7,9.9c0.2,0.6,0.5,1.2,0.7,1.8c0.2,0.6,0.4,1.1,0.5,1.6h0.1
				c0.1-0.5,0.3-1,0.5-1.6c0.2-0.6,0.4-1.2,0.6-1.8l3.7-9.9h1.7l-5.7,14.9H538z"/>
			<path class="st2" d="M551.8,204c1.7,0,2.9,0.4,3.8,1.2s1.2,2.1,1.2,3.9v10.1h-1.2l-0.3-2.5h-0.1c-0.5,0.8-1.2,1.5-2,2
				c-0.8,0.5-1.9,0.8-3.3,0.8c-1.4,0-2.6-0.4-3.4-1.1c-0.8-0.7-1.2-1.8-1.2-3.1c0-1.5,0.6-2.6,1.8-3.4c1.2-0.8,3-1.2,5.3-1.3
				l2.7-0.1v-1c0-1.5-0.3-2.5-0.9-3.1s-1.5-0.9-2.6-0.9c-0.8,0-1.5,0.1-2.2,0.3s-1.4,0.5-2.1,0.9l-0.5-1.3c0.7-0.4,1.5-0.6,2.3-0.9
				C550,204.1,550.9,204,551.8,204z M555.2,211.7l-2.5,0.1c-1.9,0.1-3.3,0.4-4.3,1c-0.9,0.6-1.4,1.4-1.4,2.6c0,0.9,0.3,1.6,0.9,2.1
				c0.6,0.5,1.4,0.7,2.4,0.7c1.6,0,2.8-0.4,3.6-1.3c0.9-0.9,1.3-2.1,1.3-3.7V211.7z"/>
			<path class="st2" d="M566.9,204c1.7,0,3,0.4,3.9,1.3c0.9,0.9,1.3,2.3,1.3,4.1v9.8h-1.6v-9.7c0-1.4-0.3-2.5-1-3.1
				c-0.6-0.7-1.6-1-2.9-1c-3.3,0-4.9,1.9-4.9,5.7v8.1h-1.6v-14.9h1.3l0.2,2.6h0.1c0.4-0.8,1-1.5,1.9-2.1
				C564.5,204.2,565.6,204,566.9,204z"/>
			<path class="st2" d="M581.5,219.5c-2.2,0-3.9-0.7-5.1-2s-1.8-3.2-1.8-5.7c0-1.7,0.3-3.1,0.9-4.3c0.6-1.2,1.4-2.1,2.5-2.7
				c1.1-0.6,2.3-0.9,3.8-0.9c0.7,0,1.4,0.1,2,0.2c0.6,0.1,1.2,0.3,1.7,0.5l-0.4,1.4c-1-0.5-2.1-0.7-3.3-0.7c-1.8,0-3.1,0.6-4.1,1.7
				c-1,1.1-1.4,2.7-1.4,4.7c0,1.9,0.4,3.4,1.3,4.6s2.1,1.7,3.9,1.7c0.7,0,1.5-0.1,2.1-0.2c0.7-0.1,1.2-0.3,1.8-0.6v1.4
				c-0.5,0.2-1,0.4-1.7,0.6C583,219.4,582.3,219.5,581.5,219.5z"/>
			<path class="st2" d="M593.1,204c1.3,0,2.3,0.3,3.2,0.9c0.9,0.6,1.5,1.4,1.9,2.4s0.6,2.2,0.6,3.5v1.1h-10.7c0,2,0.5,3.5,1.4,4.5
				c0.9,1.1,2.2,1.6,4,1.6c0.9,0,1.8-0.1,2.4-0.2c0.7-0.1,1.5-0.4,2.3-0.8v1.5c-0.7,0.3-1.5,0.6-2.2,0.7c-0.7,0.2-1.6,0.2-2.6,0.2
				c-2.2,0-3.9-0.7-5.1-2.1c-1.2-1.4-1.8-3.2-1.8-5.6c0-1.5,0.3-2.9,0.8-4.1c0.5-1.2,1.3-2.1,2.2-2.8
				C590.6,204.3,591.8,204,593.1,204z M593.1,205.3c-1.4,0-2.5,0.5-3.3,1.4c-0.9,0.9-1.4,2.2-1.5,3.9h9c0-1.6-0.3-2.8-1-3.8
				C595.6,205.8,594.5,205.3,593.1,205.3z"/>
			<path class="st2" d="M605,204.2h1.7l3.6,9.3c0.3,0.8,0.6,1.6,0.8,2.2c0.2,0.6,0.4,1.2,0.5,1.7h0.1c0.1-0.4,0.3-1,0.5-1.7
				c0.2-0.7,0.5-1.4,0.8-2.2l3.5-9.3h1.7l-6.7,17.6c-0.5,1.3-1.1,2.3-1.8,3c-0.7,0.7-1.6,1.1-2.8,1.1c-0.4,0-0.7,0-1-0.1
				c-0.3-0.1-0.6-0.1-0.8-0.2v-1.3c0.5,0.2,1,0.3,1.6,0.3c0.8,0,1.4-0.2,1.9-0.7c0.5-0.5,0.9-1.2,1.3-2.2l1-2.5L605,204.2z"/>
			<path class="st2" d="M631.7,211.7c0,1.6-0.3,2.9-0.8,4.1c-0.5,1.2-1.3,2.1-2.3,2.7c-1,0.6-2.2,1-3.7,1c-1.4,0-2.6-0.3-3.6-1
				c-1-0.6-1.8-1.5-2.3-2.7c-0.5-1.2-0.8-2.5-0.8-4.1c0-2.4,0.6-4.3,1.8-5.7c1.2-1.4,2.9-2.1,5-2.1c1.4,0,2.6,0.3,3.6,1
				s1.7,1.5,2.2,2.7C631.5,208.8,631.7,210.2,631.7,211.7z M620,211.7c0,1.9,0.4,3.5,1.2,4.6c0.8,1.2,2.1,1.8,3.8,1.8
				c1.7,0,3-0.6,3.8-1.8c0.8-1.2,1.2-2.7,1.2-4.6c0-1.2-0.2-2.3-0.5-3.3c-0.3-1-0.9-1.7-1.6-2.2s-1.7-0.8-2.9-0.8
				c-1.7,0-3,0.6-3.8,1.7C620.4,208.2,620,209.7,620,211.7z"/>
			<path class="st2" d="M646.2,204.2v14.9h-1.3l-0.2-2.6h-0.1c-0.4,0.8-1,1.5-1.9,2s-1.9,0.8-3.2,0.8c-3.5,0-5.3-1.8-5.3-5.4v-9.8
				h1.6v9.7c0,1.4,0.3,2.5,1,3.2s1.6,1,2.9,1c3.3,0,4.9-1.9,4.9-5.7v-8.1H646.2z"/>
			<path class="st2" d="M655.9,204c0.8,0,1.5,0.1,2,0.3l-0.2,1.5c-0.3-0.1-0.6-0.1-0.9-0.2c-0.3,0-0.6-0.1-1-0.1
				c-1.4,0-2.5,0.5-3.3,1.5c-0.8,1-1.2,2.3-1.2,4v8.2h-1.6v-14.9h1.3l0.2,2.8h0.1c0.4-0.8,0.9-1.6,1.7-2.2
				C653.8,204.3,654.7,204,655.9,204z"/>
			<path class="st2" d="M674.7,215.2c0,1.4-0.5,2.4-1.5,3.1c-1,0.7-2.4,1.1-4.3,1.1c-1,0-2-0.1-2.8-0.3c-0.8-0.2-1.5-0.4-2-0.7V217
				c0.7,0.3,1.4,0.6,2.2,0.8c0.8,0.2,1.7,0.3,2.6,0.3c1.5,0,2.5-0.2,3.2-0.7c0.7-0.5,1-1.2,1-2c0-0.8-0.3-1.5-1-1.9
				c-0.7-0.4-1.7-0.9-3.1-1.4c-0.9-0.3-1.7-0.6-2.4-1s-1.2-0.7-1.6-1.2c-0.4-0.5-0.6-1.2-0.6-2.1c0-1.2,0.5-2.1,1.5-2.8s2.3-1,3.9-1
				c0.9,0,1.7,0.1,2.5,0.3s1.5,0.4,2.1,0.7l-0.6,1.3c-0.6-0.3-1.2-0.5-2-0.6c-0.7-0.2-1.5-0.3-2.2-0.3c-1.2,0-2.1,0.2-2.8,0.6
				s-1,1-1,1.8c0,0.6,0.2,1.1,0.5,1.4c0.3,0.3,0.8,0.6,1.4,0.9s1.3,0.5,2.2,0.8c0.9,0.3,1.7,0.6,2.4,1s1.3,0.8,1.7,1.3
				C674.5,213.6,674.7,214.3,674.7,215.2z"/>
			<path class="st2" d="M683,219.5c-2.2,0-3.9-0.7-5.1-2s-1.8-3.2-1.8-5.7c0-1.7,0.3-3.1,0.9-4.3c0.6-1.2,1.4-2.1,2.5-2.7
				c1.1-0.6,2.3-0.9,3.8-0.9c0.7,0,1.4,0.1,2,0.2c0.6,0.1,1.2,0.3,1.7,0.5l-0.4,1.4c-1-0.5-2.1-0.7-3.3-0.7c-1.8,0-3.1,0.6-4.1,1.7
				c-1,1.1-1.4,2.7-1.4,4.7c0,1.9,0.4,3.4,1.3,4.6c0.8,1.2,2.1,1.7,3.9,1.7c0.7,0,1.5-0.1,2.1-0.2c0.7-0.1,1.2-0.3,1.8-0.6v1.4
				c-0.5,0.2-1,0.4-1.7,0.6C684.6,219.4,683.8,219.5,683,219.5z"/>
			<path class="st2" d="M689.8,198.7c0.7,0,1.1,0.4,1.1,1.2c0,0.8-0.4,1.2-1.1,1.2c-0.7,0-1.1-0.4-1.1-1.2
				C688.7,199.1,689.1,198.7,689.8,198.7z M690.6,204.2v14.9H689v-14.9H690.6z"/>
			<path class="st2" d="M699.8,204c1.3,0,2.3,0.3,3.2,0.9c0.9,0.6,1.5,1.4,1.9,2.4s0.6,2.2,0.6,3.5v1.1h-10.7c0,2,0.5,3.5,1.4,4.5
				c0.9,1.1,2.2,1.6,4,1.6c0.9,0,1.8-0.1,2.4-0.2c0.7-0.1,1.5-0.4,2.3-0.8v1.5c-0.7,0.3-1.5,0.6-2.2,0.7c-0.7,0.2-1.6,0.2-2.6,0.2
				c-2.2,0-3.9-0.7-5.1-2.1c-1.2-1.4-1.8-3.2-1.8-5.6c0-1.5,0.3-2.9,0.8-4.1c0.5-1.2,1.3-2.1,2.2-2.8
				C697.2,204.3,698.4,204,699.8,204z M699.8,205.3c-1.4,0-2.5,0.5-3.3,1.4c-0.9,0.9-1.4,2.2-1.5,3.9h9c0-1.6-0.3-2.8-1-3.8
				C702.2,205.8,701.2,205.3,699.8,205.3z"/>
			<path class="st2" d="M714.9,204c1.7,0,3,0.4,3.9,1.3c0.9,0.9,1.3,2.3,1.3,4.1v9.8h-1.6v-9.7c0-1.4-0.3-2.5-1-3.1
				c-0.6-0.7-1.6-1-2.9-1c-3.3,0-4.9,1.9-4.9,5.7v8.1h-1.6v-14.9h1.3l0.2,2.6h0.1c0.4-0.8,1-1.5,1.9-2.1
				C712.6,204.2,713.6,204,714.9,204z"/>
			<path class="st2" d="M729.6,219.5c-2.2,0-3.9-0.7-5.1-2s-1.8-3.2-1.8-5.7c0-1.7,0.3-3.1,0.9-4.3c0.6-1.2,1.4-2.1,2.5-2.7
				c1.1-0.6,2.3-0.9,3.8-0.9c0.7,0,1.4,0.1,2,0.2c0.6,0.1,1.2,0.3,1.7,0.5l-0.4,1.4c-1-0.5-2.1-0.7-3.3-0.7c-1.8,0-3.1,0.6-4.1,1.7
				c-1,1.1-1.4,2.7-1.4,4.7c0,1.9,0.4,3.4,1.3,4.6s2.1,1.7,3.9,1.7c0.7,0,1.5-0.1,2.1-0.2c0.7-0.1,1.2-0.3,1.8-0.6v1.4
				c-0.5,0.2-1,0.4-1.7,0.6C731.1,219.4,730.4,219.5,729.6,219.5z"/>
			<path class="st2" d="M741.2,204c1.3,0,2.3,0.3,3.2,0.9c0.9,0.6,1.5,1.4,1.9,2.4s0.6,2.2,0.6,3.5v1.1h-10.7c0,2,0.5,3.5,1.4,4.5
				c0.9,1.1,2.2,1.6,4,1.6c0.9,0,1.8-0.1,2.4-0.2c0.7-0.1,1.5-0.4,2.3-0.8v1.5c-0.7,0.3-1.5,0.6-2.2,0.7c-0.7,0.2-1.6,0.2-2.6,0.2
				c-2.2,0-3.9-0.7-5.1-2.1c-1.2-1.4-1.8-3.2-1.8-5.6c0-1.5,0.3-2.9,0.8-4.1c0.5-1.2,1.3-2.1,2.2-2.8
				C738.6,204.3,739.8,204,741.2,204z M741.2,205.3c-1.4,0-2.5,0.5-3.3,1.4c-0.9,0.9-1.4,2.2-1.5,3.9h9c0-1.6-0.3-2.8-1-3.8
				C743.7,205.8,742.6,205.3,741.2,205.3z"/>
		</g>
	</g>
	<g>
		<defs>
			<circle id="SVGID_1_" cx="153.5" cy="124.2" r="77.5"/>
		</defs>
		<use xlink:href="#SVGID_1_"  style="overflow:visible;fill:#27AAE1;"/>
		<clipPath id="SVGID_2_">
			<use xlink:href="#SVGID_1_"  style="overflow:visible;"/>
		</clipPath>
		<g class="st3">
			<path class="st4" d="M167.1,106.7h14.6 M167.3,126.8l-0.1-20.1l-5.9-5.9V95h35.1v5.9l-5.9,5.9v76.1c0,4.9-3.9,8.8-8.8,8.8h-5.9
				c-4.8,0-8.8-3.9-8.8-8.8V177"/>
			<path class="st5" d="M137.9,74.3v-2.9c0-10.9,9.9-17.6,20.8-17.6h-0.1c10.9,0,20.3,9.6,20.3,20.5V86"/>
			<path class="st4" d="M123.2,83.3v5.9l5.9,5.9v21.5c-16.8,4-29.3,19-29.3,37c0,21,17,38.1,38.1,38.1c21,0,38.1-17,38.1-38.1
				c0-18-12.5-33-29.3-37V95l5.9-5.9v-5.9H123.2z M137.9,95h-8.8"/>
		</g>
	</g>
</g>
</svg>
