<?xml version="1.0" encoding="UTF-8" standalone="no"?>
<svg
   version="1.1"
   width="256"
   height="256"
   viewBox="0 0 256 256"
   xml:space="preserve"
   id="svg1090"
   sodipodi:docname="zip-1.svg"
   inkscape:version="1.1.2 (0a00cf5339, 2022-02-04)"
   xmlns:inkscape="http://www.inkscape.org/namespaces/inkscape"
   xmlns:sodipodi="http://sodipodi.sourceforge.net/DTD/sodipodi-0.dtd"
   xmlns="http://www.w3.org/2000/svg"
   xmlns:svg="http://www.w3.org/2000/svg"><sodipodi:namedview
     id="namedview1092"
     pagecolor="#ffffff"
     bordercolor="#666666"
     borderopacity="1.0"
     inkscape:pageshadow="2"
     inkscape:pageopacity="0.0"
     inkscape:pagecheckerboard="0"
     showgrid="false"
     inkscape:zoom="3.3984375"
     inkscape:cx="128"
     inkscape:cy="181.55402"
     inkscape:window-width="1920"
     inkscape:window-height="1048"
     inkscape:window-x="0"
     inkscape:window-y="0"
     inkscape:window-maximized="1"
     inkscape:current-layer="svg1090" /><defs
     id="defs1072" /><rect
     style="fill:#efefef;fill-opacity:1;stroke:none;stroke-width:7.55906;stroke-linecap:round;stroke-opacity:1"
     id="rect15881"
     width="174.36461"
     height="92.132828"
     x="41.89798"
     y="91.415802" /><g
     style="stroke:none;stroke-width:0;stroke-dasharray:none;stroke-linecap:butt;stroke-linejoin:miter;stroke-miterlimit:10;fill:#efefef;fill-rule:nonzero;opacity:1;stroke-opacity:1;fill-opacity:1"
     transform="translate(1.4065934065934016 1.4065934065934016) scale(2.81 2.81)"
     id="g1088"><path
       d="M 75.569 83.678 v 2.031 c 0 0.729 -0.594 1.323 -1.324 1.323 h -58.49 c -0.73 0 -1.324 -0.594 -1.324 -1.323 V 4.291 c 0 -0.73 0.594 -1.324 1.324 -1.324 h 45.851 v 9.153 c 0 2.366 1.925 4.291 4.29 4.291 h 9.673 V 83.678 c 1.021 0.094 1.601 1.553 2.967 -0.566 V 14.94 c 0.001 -0.084 -0.006 -0.166 -0.018 -0.248 c 0 0 -0.001 0 -0.001 -0.001 c 0 -0.001 0 -0.001 0 -0.003 v 0 c 0 -0.001 -0.001 -0.002 -0.001 -0.003 c -0.007 -0.042 -0.015 -0.082 -0.026 -0.123 v 0 c -0.001 -0.001 0.002 -0.003 -0.001 -0.003 c 0 -0.002 0 -0.003 -0.001 -0.004 v 0 c -0.066 -0.253 -0.199 -0.489 -0.392 -0.68 l -0.001 0 c 0 0 -0.001 -0.001 -0.001 -0.001 c -0.007 -0.001 -0.002 -0.001 -0.003 -0.002 c 0.003 -0.005 -0.002 -0.002 -0.002 -0.002 c -0.002 -0.001 0.001 -0.001 -0.003 -0.002 c 0.001 -0.001 -0.002 -0.001 -0.002 -0.002 c -0.001 -0.001 -0.002 -0.001 -0.003 -0.002 L 64.118 0.415 c -0.001 -0.001 -0.002 -0.002 -0.003 -0.003 c -0.001 -0.001 -0.002 -0.002 -0.003 -0.003 c -0.201 -0.19 -0.444 -0.317 -0.703 -0.374 c -0.038 -0.008 -0.075 -0.015 -0.113 -0.02 c -0.001 0 -0.001 0 -0.001 0 c -0.002 -0.001 -0.003 0 -0.005 -0.001 c -0.002 0 -0.004 -0.001 -0.004 0 c -0.001 0 -0.003 0 -0.005 0 c -0.002 0 -0.003 -0.001 -0.005 0 c 0 0 -0.001 0 -0.005 -0.001 C 63.207 0.003 63.131 0.003 63.079 0 H 15.755 c -2.366 0 -4.291 1.925 -4.291 4.291 V 85.71 c 0 2.365 1.925 4.29 4.291 4.29 h 58.49 c 2.366 0 4.291 -1.925 4.291 -4.29 v -2.598 C 77.58 83.39 76.59 83.584 75.569 83.678 z M 64.573 4.971 l 8.8 8.473 h -7.477 c -0.729 0 -1.323 -0.594 -1.323 -1.324 V 4.971 z"
       style="stroke:none;stroke-width:1;stroke-dasharray:none;stroke-linecap:butt;stroke-linejoin:miter;stroke-miterlimit:10;fill:#efefef;fill-rule:nonzero;opacity:1;stroke-opacity:1;fill-opacity:1"
       transform=" matrix(1 0 0 1 0 0) "
       stroke-linecap="round"
       id="path1076" /></g><text
     xml:space="preserve"
     style="font-style:normal;font-weight:normal;font-size:40px;line-height:1.25;font-family:sans-serif;fill:#000000;fill-opacity:1;stroke:none"
     x="56.623894"
     y="169.42198"
     id="text12963"><tspan
       sodipodi:role="line"
       id="tspan12961"
       x="56.623894"
       y="169.42198"
       style="font-style:normal;font-variant:normal;font-weight:normal;font-stretch:normal;font-size:93.3333px;font-family:FreeSerif;-inkscape-font-specification:'FreeSerif, Normal';font-variant-ligatures:normal;font-variant-caps:normal;font-variant-numeric:normal;font-variant-east-asian:normal">ZIP</tspan></text></svg>
